<svg width="1000" height="500" viewBox="0 0 1000 500" fill="none" xmlns="http://www.w3.org/2000/svg">
<path d="M1000 0H0V500H1000V0Z" fill="#121212"/>
<path d="M647.5 209.682H352.5V251.046H647.5V209.682Z" fill="#F0D50C" stroke="#121212" stroke-width="5"/>
<path d="M647.5 153.5H352.5V194.864H647.5V153.5Z" fill="#91AADF" stroke="#121212" stroke-width="5"/>
<path d="M647.5 265.864H352.5V307.228H647.5V265.864Z" fill="#DEDEDE" stroke="#121212" stroke-width="5"/>
<path d="M403 278V275H406V278H403ZM406 278V275H409V278H406ZM409 278V275H412V278H409ZM412 278V275H415V278H412ZM400 281V278H403V281H400ZM403 284V281H406V284H403ZM406 284V281H409V284H406ZM409 287V284H412V287H409ZM412 290V287H415V290H412ZM400 293V290H403V293H400ZM403 293V290H406V293H403ZM406 293V290H409V293H406ZM409 293V290H412V293H409ZM421 278V275H424V278H421ZM424 278V275H427V278H424ZM427 278V275H430V278H427ZM430 278V275H433V278H430ZM421 281V278H424V281H421ZM433 281V278H436V281H433ZM421 284V281H424V284H421ZM433 284V281H436V284H433ZM421 287V284H424V287H421ZM433 287V284H436V287H433ZM421 290V287H424V290H421ZM433 290V287H436V290H433ZM421 293V290H424V293H421ZM424 293V290H427V293H424ZM427 293V290H430V293H427ZM430 293V290H433V293H430ZM421 296V293H424V296H421ZM421 299V296H424V299H421ZM421 302V299H424V302H421ZM445 278V275H448V278H445ZM448 278V275H451V278H448ZM451 278V275H454V278H451ZM454 281V278H457V281H454ZM445 284V281H448V284H445ZM448 284V281H451V284H448ZM451 284V281H454V284H451ZM454 284V281H457V284H454ZM442 287V284H445V287H442ZM454 287V284H457V287H454ZM442 290V287H445V290H442ZM454 290V287H457V290H454ZM445 293V290H448V293H445ZM448 293V290H451V293H448ZM451 293V290H454V293H451ZM454 293V290H457V293H454ZM466 278V275H469V278H466ZM469 278V275H472V278H469ZM472 278V275H475V278H472ZM463 281V278H466V281H463ZM475 281V278H478V281H475ZM463 284V281H466V284H463ZM463 287V284H466V287H463ZM463 290V287H466V290H463ZM475 290V287H478V290H475ZM466 293V290H469V293H466ZM469 293V290H472V293H469ZM472 293V290H475V293H472ZM487 278V275H490V278H487ZM490 278V275H493V278H490ZM493 278V275H496V278H493ZM484 281V278H487V281H484ZM496 281V278H499V281H496ZM484 284V281H487V284H484ZM487 284V281H490V284H487ZM490 284V281H493V284H490ZM493 284V281H496V284H493ZM496 284V281H499V284H496ZM484 287V284H487V287H484ZM484 290V287H487V290H484ZM496 290V287H499V290H496ZM487 293V290H490V293H487ZM490 293V290H493V293H490ZM493 293V290H496V293H493ZM508 278V275H511V278H508ZM511 278V275H514V278H511ZM514 278V275H517V278H514ZM505 281V278H508V281H505ZM517 281V278H520V281H517ZM505 284V281H508V284H505ZM505 287V284H508V287H505ZM505 290V287H508V290H505ZM517 290V287H520V290H517ZM508 293V290H511V293H508ZM511 293V290H514V293H511ZM514 293V290H517V293H514ZM529 278V275H532V278H529ZM532 278V275H535V278H532ZM535 278V275H538V278H535ZM538 281V278H541V281H538ZM529 284V281H532V284H529ZM532 284V281H535V284H532ZM535 284V281H538V284H535ZM538 284V281H541V284H538ZM526 287V284H529V287H526ZM538 287V284H541V287H538ZM526 290V287H529V290H526ZM538 290V287H541V290H538ZM529 293V290H532V293H529ZM532 293V290H535V293H532ZM535 293V290H538V293H535ZM538 293V290H541V293H538ZM544 278V275H547V278H544ZM547 278V275H550V278H547ZM550 278V275H553V278H550ZM556 278V275H559V278H556ZM559 278V275H562V278H559ZM544 281V278H547V281H544ZM553 281V278H556V281H553ZM562 281V278H565V281H562ZM544 284V281H547V284H544ZM553 284V281H556V284H553ZM562 284V281H565V284H562ZM544 287V284H547V287H544ZM553 287V284H556V287H553ZM562 287V284H565V287H562ZM544 290V287H547V290H544ZM553 290V287H556V290H553ZM562 290V287H565V290H562ZM544 293V290H547V293H544ZM553 293V290H556V293H553ZM562 293V290H565V293H562ZM568 278V275H571V278H568ZM571 278V275H574V278H571ZM574 278V275H577V278H574ZM577 278V275H580V278H577ZM568 281V278H571V281H568ZM580 281V278H583V281H580ZM568 284V281H571V284H568ZM580 284V281H583V284H580ZM568 287V284H571V287H568ZM580 287V284H583V287H580ZM568 290V287H571V290H568ZM580 290V287H583V290H580ZM568 293V290H571V293H568ZM571 293V290H574V293H571ZM574 293V290H577V293H574ZM577 293V290H580V293H577ZM568 296V293H571V296H568ZM568 299V296H571V299H568ZM568 302V299H571V302H568Z" fill="black"/>
<path d="M350 346.5V345H351.5V346.5H350ZM351.5 346.5V345H353V346.5H351.5ZM353 346.5V345H354.5V346.5H353ZM348.5 348V346.5H350V348H348.5ZM354.5 348V346.5H356V348H354.5ZM348.5 349.5V348H350V349.5H348.5ZM348.5 351V349.5H350V351H348.5ZM348.5 352.5V351H350V352.5H348.5ZM354.5 352.5V351H356V352.5H354.5ZM350 354V352.5H351.5V354H350ZM351.5 354V352.5H353V354H351.5ZM353 354V352.5H354.5V354H353ZM360.5 346.5V345H362V346.5H360.5ZM362 346.5V345H363.5V346.5H362ZM363.5 346.5V345H365V346.5H363.5ZM359 348V346.5H360.5V348H359ZM365 348V346.5H366.5V348H365ZM359 349.5V348H360.5V349.5H359ZM365 349.5V348H366.5V349.5H365ZM359 351V349.5H360.5V351H359ZM365 351V349.5H366.5V351H365ZM359 352.5V351H360.5V352.5H359ZM365 352.5V351H366.5V352.5H365ZM360.5 354V352.5H362V354H360.5ZM362 354V352.5H363.5V354H362ZM363.5 354V352.5H365V354H363.5ZM371 342V340.5H372.5V342H371ZM372.5 342V340.5H374V342H372.5ZM372.5 343.5V342H374V343.5H372.5ZM372.5 345V343.5H374V345H372.5ZM372.5 346.5V345H374V346.5H372.5ZM372.5 348V346.5H374V348H372.5ZM372.5 349.5V348H374V349.5H372.5ZM372.5 351V349.5H374V351H372.5ZM372.5 352.5V351H374V352.5H372.5ZM372.5 354V352.5H374V354H372.5ZM381.5 346.5V345H383V346.5H381.5ZM383 346.5V345H384.5V346.5H383ZM384.5 346.5V345H386V346.5H384.5ZM380 348V346.5H381.5V348H380ZM386 348V346.5H387.5V348H386ZM380 349.5V348H381.5V349.5H380ZM386 349.5V348H387.5V349.5H386ZM380 351V349.5H381.5V351H380ZM386 351V349.5H387.5V351H386ZM380 352.5V351H381.5V352.5H380ZM386 352.5V351H387.5V352.5H386ZM381.5 354V352.5H383V354H381.5ZM383 354V352.5H384.5V354H383ZM384.5 354V352.5H386V354H384.5ZM390.5 346.5V345H392V346.5H390.5ZM393.5 346.5V345H395V346.5H393.5ZM395 346.5V345H396.5V346.5H395ZM390.5 348V346.5H392V348H390.5ZM392 348V346.5H393.5V348H392ZM396.5 348V346.5H398V348H396.5ZM390.5 349.5V348H392V349.5H390.5ZM390.5 351V349.5H392V351H390.5ZM390.5 352.5V351H392V352.5H390.5ZM390.5 354V352.5H392V354H390.5ZM402.5 346.5V345H404V346.5H402.5ZM404 346.5V345H405.5V346.5H404ZM405.5 346.5V345H407V346.5H405.5ZM407 346.5V345H408.5V346.5H407ZM401 348V346.5H402.5V348H401ZM402.5 349.5V348H404V349.5H402.5ZM404 349.5V348H405.5V349.5H404ZM405.5 351V349.5H407V351H405.5ZM407 352.5V351H408.5V352.5H407ZM401 354V352.5H402.5V354H401ZM402.5 354V352.5H404V354H402.5ZM404 354V352.5H405.5V354H404ZM405.5 354V352.5H407V354H405.5ZM425 342V340.5H426.5V342H425ZM426.5 342V340.5H428V342H426.5ZM428 342V340.5H429.5V342H428ZM423.5 343.5V342H425V343.5H423.5ZM423.5 345V343.5H425V345H423.5ZM422 346.5V345H423.5V346.5H422ZM423.5 346.5V345H425V346.5H423.5ZM425 346.5V345H426.5V346.5H425ZM426.5 346.5V345H428V346.5H426.5ZM423.5 348V346.5H425V348H423.5ZM423.5 349.5V348H425V349.5H423.5ZM423.5 351V349.5H425V351H423.5ZM423.5 352.5V351H425V352.5H423.5ZM423.5 354V352.5H425V354H423.5ZM434 346.5V345H435.5V346.5H434ZM435.5 346.5V345H437V346.5H435.5ZM437 346.5V345H438.5V346.5H437ZM432.5 348V346.5H434V348H432.5ZM438.5 348V346.5H440V348H438.5ZM432.5 349.5V348H434V349.5H432.5ZM438.5 349.5V348H440V349.5H438.5ZM432.5 351V349.5H434V351H432.5ZM438.5 351V349.5H440V351H438.5ZM432.5 352.5V351H434V352.5H432.5ZM438.5 352.5V351H440V352.5H438.5ZM434 354V352.5H435.5V354H434ZM435.5 354V352.5H437V354H435.5ZM437 354V352.5H438.5V354H437ZM443 346.5V345H444.5V346.5H443ZM446 346.5V345H447.5V346.5H446ZM447.5 346.5V345H449V346.5H447.5ZM443 348V346.5H444.5V348H443ZM444.5 348V346.5H446V348H444.5ZM449 348V346.5H450.5V348H449ZM443 349.5V348H444.5V349.5H443ZM443 351V349.5H444.5V351H443ZM443 352.5V351H444.5V352.5H443ZM443 354V352.5H444.5V354H443ZM465.5 343.5V342H467V343.5H465.5ZM465.5 345V343.5H467V345H465.5ZM465.5 346.5V345H467V346.5H465.5ZM467 346.5V345H468.5V346.5H467ZM468.5 346.5V345H470V346.5H468.5ZM470 346.5V345H471.5V346.5H470ZM465.5 348V346.5H467V348H465.5ZM465.5 349.5V348H467V349.5H465.5ZM465.5 351V349.5H467V351H465.5ZM465.5 352.5V351H467V352.5H465.5ZM467 354V352.5H468.5V354H467ZM468.5 354V352.5H470V354H468.5ZM470 354V352.5H471.5V354H470ZM474.5 342V340.5H476V342H474.5ZM474.5 343.5V342H476V343.5H474.5ZM474.5 345V343.5H476V345H474.5ZM474.5 346.5V345H476V346.5H474.5ZM476 346.5V345H477.5V346.5H476ZM477.5 346.5V345H479V346.5H477.5ZM479 346.5V345H480.5V346.5H479ZM474.5 348V346.5H476V348H474.5ZM480.5 348V346.5H482V348H480.5ZM474.5 349.5V348H476V349.5H474.5ZM480.5 349.5V348H482V349.5H480.5ZM474.5 351V349.5H476V351H474.5ZM480.5 351V349.5H482V351H480.5ZM474.5 352.5V351H476V352.5H474.5ZM480.5 352.5V351H482V352.5H480.5ZM474.5 354V352.5H476V354H474.5ZM480.5 354V352.5H482V354H480.5ZM486.5 346.5V345H488V346.5H486.5ZM488 346.5V345H489.5V346.5H488ZM489.5 346.5V345H491V346.5H489.5ZM485 348V346.5H486.5V348H485ZM491 348V346.5H492.5V348H491ZM485 349.5V348H486.5V349.5H485ZM486.5 349.5V348H488V349.5H486.5ZM488 349.5V348H489.5V349.5H488ZM489.5 349.5V348H491V349.5H489.5ZM491 349.5V348H492.5V349.5H491ZM485 351V349.5H486.5V351H485ZM485 352.5V351H486.5V352.5H485ZM491 352.5V351H492.5V352.5H491ZM486.5 354V352.5H488V354H486.5ZM488 354V352.5H489.5V354H488ZM489.5 354V352.5H491V354H489.5ZM509 342V340.5H510.5V342H509ZM510.5 342V340.5H512V342H510.5ZM512 342V340.5H513.5V342H512ZM507.5 343.5V342H509V343.5H507.5ZM507.5 345V343.5H509V345H507.5ZM506 346.5V345H507.5V346.5H506ZM507.5 346.5V345H509V346.5H507.5ZM509 346.5V345H510.5V346.5H509ZM510.5 346.5V345H512V346.5H510.5ZM507.5 348V346.5H509V348H507.5ZM507.5 349.5V348H509V349.5H507.5ZM507.5 351V349.5H509V351H507.5ZM507.5 352.5V351H509V352.5H507.5ZM507.5 354V352.5H509V354H507.5ZM519.5 342V340.5H521V342H519.5ZM518 346.5V345H519.5V346.5H518ZM519.5 346.5V345H521V346.5H519.5ZM519.5 348V346.5H521V348H519.5ZM519.5 349.5V348H521V349.5H519.5ZM519.5 351V349.5H521V351H519.5ZM519.5 352.5V351H521V352.5H519.5ZM519.5 354V352.5H521V354H519.5ZM527 346.5V345H528.5V346.5H527ZM528.5 346.5V345H530V346.5H528.5ZM530 346.5V345H531.5V346.5H530ZM531.5 346.5V345H533V346.5H531.5ZM527 348V346.5H528.5V348H527ZM533 348V346.5H534.5V348H533ZM527 349.5V348H528.5V349.5H527ZM533 349.5V348H534.5V349.5H533ZM527 351V349.5H528.5V351H527ZM533 351V349.5H534.5V351H533ZM527 352.5V351H528.5V352.5H527ZM533 352.5V351H534.5V352.5H533ZM527 354V352.5H528.5V354H527ZM533 354V352.5H534.5V354H533ZM539 346.5V345H540.5V346.5H539ZM540.5 346.5V345H542V346.5H540.5ZM542 346.5V345H543.5V346.5H542ZM543.5 348V346.5H545V348H543.5ZM539 349.5V348H540.5V349.5H539ZM540.5 349.5V348H542V349.5H540.5ZM542 349.5V348H543.5V349.5H542ZM543.5 349.5V348H545V349.5H543.5ZM537.5 351V349.5H539V351H537.5ZM543.5 351V349.5H545V351H543.5ZM537.5 352.5V351H539V352.5H537.5ZM543.5 352.5V351H545V352.5H543.5ZM539 354V352.5H540.5V354H539ZM540.5 354V352.5H542V354H540.5ZM542 354V352.5H543.5V354H542ZM543.5 354V352.5H545V354H543.5ZM549.5 342V340.5H551V342H549.5ZM551 342V340.5H552.5V342H551ZM551 343.5V342H552.5V343.5H551ZM551 345V343.5H552.5V345H551ZM551 346.5V345H552.5V346.5H551ZM551 348V346.5H552.5V348H551ZM551 349.5V348H552.5V349.5H551ZM551 351V349.5H552.5V351H551ZM551 352.5V351H552.5V352.5H551ZM551 354V352.5H552.5V354H551ZM572 342V340.5H573.5V342H572ZM573.5 342V340.5H575V342H573.5ZM575 342V340.5H576.5V342H575ZM570.5 343.5V342H572V343.5H570.5ZM570.5 345V343.5H572V345H570.5ZM569 346.5V345H570.5V346.5H569ZM570.5 346.5V345H572V346.5H570.5ZM572 346.5V345H573.5V346.5H572ZM573.5 346.5V345H575V346.5H573.5ZM570.5 348V346.5H572V348H570.5ZM570.5 349.5V348H572V349.5H570.5ZM570.5 351V349.5H572V351H570.5ZM570.5 352.5V351H572V352.5H570.5ZM570.5 354V352.5H572V354H570.5ZM579.5 346.5V345H581V346.5H579.5ZM582.5 346.5V345H584V346.5H582.5ZM584 346.5V345H585.5V346.5H584ZM579.5 348V346.5H581V348H579.5ZM581 348V346.5H582.5V348H581ZM585.5 348V346.5H587V348H585.5ZM579.5 349.5V348H581V349.5H579.5ZM579.5 351V349.5H581V351H579.5ZM579.5 352.5V351H581V352.5H579.5ZM579.5 354V352.5H581V354H579.5ZM591.5 346.5V345H593V346.5H591.5ZM593 346.5V345H594.5V346.5H593ZM594.5 346.5V345H596V346.5H594.5ZM590 348V346.5H591.5V348H590ZM596 348V346.5H597.5V348H596ZM590 349.5V348H591.5V349.5H590ZM596 349.5V348H597.5V349.5H596ZM590 351V349.5H591.5V351H590ZM596 351V349.5H597.5V351H596ZM590 352.5V351H591.5V352.5H590ZM596 352.5V351H597.5V352.5H596ZM591.5 354V352.5H593V354H591.5ZM593 354V352.5H594.5V354H593ZM594.5 354V352.5H596V354H594.5ZM600.5 346.5V345H602V346.5H600.5ZM602 346.5V345H603.5V346.5H602ZM603.5 346.5V345H605V346.5H603.5ZM605 346.5V345H606.5V346.5H605ZM600.5 348V346.5H602V348H600.5ZM606.5 348V346.5H608V348H606.5ZM600.5 349.5V348H602V349.5H600.5ZM606.5 349.5V348H608V349.5H606.5ZM600.5 351V349.5H602V351H600.5ZM606.5 351V349.5H608V351H606.5ZM600.5 352.5V351H602V352.5H600.5ZM606.5 352.5V351H608V352.5H606.5ZM600.5 354V352.5H602V354H600.5ZM606.5 354V352.5H608V354H606.5ZM612.5 343.5V342H614V343.5H612.5ZM612.5 345V343.5H614V345H612.5ZM612.5 346.5V345H614V346.5H612.5ZM614 346.5V345H615.5V346.5H614ZM615.5 346.5V345H617V346.5H615.5ZM617 346.5V345H618.5V346.5H617ZM612.5 348V346.5H614V348H612.5ZM612.5 349.5V348H614V349.5H612.5ZM612.5 351V349.5H614V351H612.5ZM612.5 352.5V351H614V352.5H612.5ZM614 354V352.5H615.5V354H614ZM615.5 354V352.5H617V354H615.5ZM617 354V352.5H618.5V354H617ZM624.5 342V340.5H626V342H624.5ZM623 346.5V345H624.5V346.5H623ZM624.5 346.5V345H626V346.5H624.5ZM624.5 348V346.5H626V348H624.5ZM624.5 349.5V348H626V349.5H624.5ZM624.5 351V349.5H626V351H624.5ZM624.5 352.5V351H626V352.5H624.5ZM624.5 354V352.5H626V354H624.5ZM633.5 346.5V345H635V346.5H633.5ZM635 346.5V345H636.5V346.5H635ZM636.5 346.5V345H638V346.5H636.5ZM632 348V346.5H633.5V348H632ZM638 348V346.5H639.5V348H638ZM632 349.5V348H633.5V349.5H632ZM633.5 349.5V348H635V349.5H633.5ZM635 349.5V348H636.5V349.5H635ZM636.5 349.5V348H638V349.5H636.5ZM638 349.5V348H639.5V349.5H638ZM632 351V349.5H633.5V351H632ZM632 352.5V351H633.5V352.5H632ZM638 352.5V351H639.5V352.5H638ZM633.5 354V352.5H635V354H633.5ZM635 354V352.5H636.5V354H635ZM636.5 354V352.5H638V354H636.5ZM642.5 346.5V345H644V346.5H642.5ZM645.5 346.5V345H647V346.5H645.5ZM647 346.5V345H648.5V346.5H647ZM642.5 348V346.5H644V348H642.5ZM644 348V346.5H645.5V348H644ZM648.5 348V346.5H650V348H648.5ZM642.5 349.5V348H644V349.5H642.5ZM642.5 351V349.5H644V351H642.5ZM642.5 352.5V351H644V352.5H642.5ZM642.5 354V352.5H644V354H642.5Z" fill="#DEDEDE"/>
</svg>
