<svg width="1000" height="500" viewBox="0 0 1000 500" fill="none" xmlns="http://www.w3.org/2000/svg">
<path d="M1000 0H0V500H1000V0Z" fill="#121212"/>
<path d="M173.25 153.75V152H175V153.75H173.25ZM176.75 153.75V152H178.5V153.75H176.75ZM173.25 155.5V153.75H175V155.5H173.25ZM176.75 155.5V153.75H178.5V155.5H176.75ZM169.75 157.25V155.5H171.5V157.25H169.75ZM171.5 157.25V155.5H173.25V157.25H171.5ZM173.25 157.25V155.5H175V157.25H173.25ZM175 157.25V155.5H176.75V157.25H175ZM176.75 157.25V155.5H178.5V157.25H176.75ZM178.5 157.25V155.5H180.25V157.25H178.5ZM171.5 159V157.25H173.25V159H171.5ZM175 159V157.25H176.75V159H175ZM171.5 160.75V159H173.25V160.75H171.5ZM175 160.75V159H176.75V160.75H175ZM168 162.5V160.75H169.75V162.5H168ZM169.75 162.5V160.75H171.5V162.5H169.75ZM171.5 162.5V160.75H173.25V162.5H171.5ZM173.25 162.5V160.75H175V162.5H173.25ZM175 162.5V160.75H176.75V162.5H175ZM176.75 162.5V160.75H178.5V162.5H176.75ZM169.75 164.25V162.5H171.5V164.25H169.75ZM173.25 164.25V162.5H175V164.25H173.25ZM169.75 166V164.25H171.5V166H169.75ZM173.25 166V164.25H175V166H173.25ZM182 153.75V152H183.75V153.75H182ZM183.75 153.75V152H185.5V153.75H183.75ZM185.5 153.75V152H187.25V153.75H185.5ZM187.25 153.75V152H189V153.75H187.25ZM182 155.5V153.75H183.75V155.5H182ZM189 155.5V153.75H190.75V155.5H189ZM182 157.25V155.5H183.75V157.25H182ZM190.75 157.25V155.5H192.5V157.25H190.75ZM182 159V157.25H183.75V159H182ZM190.75 159V157.25H192.5V159H190.75ZM182 160.75V159H183.75V160.75H182ZM190.75 160.75V159H192.5V160.75H190.75ZM182 162.5V160.75H183.75V162.5H182ZM190.75 162.5V160.75H192.5V162.5H190.75ZM182 164.25V162.5H183.75V164.25H182ZM189 164.25V162.5H190.75V164.25H189ZM182 166V164.25H183.75V166H182ZM183.75 166V164.25H185.5V166H183.75ZM185.5 166V164.25H187.25V166H185.5ZM187.25 166V164.25H189V166H187.25ZM194.25 153.75V152H196V153.75H194.25ZM196 153.75V152H197.75V153.75H196ZM197.75 153.75V152H199.5V153.75H197.75ZM199.5 153.75V152H201.25V153.75H199.5ZM201.25 153.75V152H203V153.75H201.25ZM194.25 155.5V153.75H196V155.5H194.25ZM194.25 157.25V155.5H196V157.25H194.25ZM194.25 159V157.25H196V159H194.25ZM196 159V157.25H197.75V159H196ZM197.75 159V157.25H199.5V159H197.75ZM199.5 159V157.25H201.25V159H199.5ZM194.25 160.75V159H196V160.75H194.25ZM194.25 162.5V160.75H196V162.5H194.25ZM194.25 164.25V162.5H196V164.25H194.25ZM194.25 166V164.25H196V166H194.25ZM196 166V164.25H197.75V166H196ZM197.75 166V164.25H199.5V166H197.75ZM199.5 166V164.25H201.25V166H199.5ZM201.25 166V164.25H203V166H201.25ZM206.5 153.75V152H208.25V153.75H206.5ZM208.25 153.75V152H210V153.75H208.25ZM210 153.75V152H211.75V153.75H210ZM211.75 153.75V152H213.5V153.75H211.75ZM206.5 155.5V153.75H208.25V155.5H206.5ZM213.5 155.5V153.75H215.25V155.5H213.5ZM206.5 157.25V155.5H208.25V157.25H206.5ZM215.25 157.25V155.5H217V157.25H215.25ZM206.5 159V157.25H208.25V159H206.5ZM215.25 159V157.25H217V159H215.25ZM206.5 160.75V159H208.25V160.75H206.5ZM215.25 160.75V159H217V160.75H215.25ZM206.5 162.5V160.75H208.25V162.5H206.5ZM215.25 162.5V160.75H217V162.5H215.25ZM206.5 164.25V162.5H208.25V164.25H206.5ZM213.5 164.25V162.5H215.25V164.25H213.5ZM206.5 166V164.25H208.25V166H206.5ZM208.25 166V164.25H210V166H208.25ZM210 166V164.25H211.75V166H210ZM211.75 166V164.25H213.5V166H211.75ZM218.75 153.75V152H220.5V153.75H218.75ZM220.5 153.75V152H222.25V153.75H220.5ZM222.25 153.75V152H224V153.75H222.25ZM224 153.75V152H225.75V153.75H224ZM225.75 153.75V152H227.5V153.75H225.75ZM218.75 155.5V153.75H220.5V155.5H218.75ZM218.75 157.25V155.5H220.5V157.25H218.75ZM218.75 159V157.25H220.5V159H218.75ZM220.5 159V157.25H222.25V159H220.5ZM222.25 159V157.25H224V159H222.25ZM224 159V157.25H225.75V159H224ZM218.75 160.75V159H220.5V160.75H218.75ZM218.75 162.5V160.75H220.5V162.5H218.75ZM218.75 164.25V162.5H220.5V164.25H218.75ZM218.75 166V164.25H220.5V166H218.75ZM220.5 166V164.25H222.25V166H220.5ZM222.25 166V164.25H224V166H222.25ZM224 166V164.25H225.75V166H224ZM225.75 166V164.25H227.5V166H225.75ZM231 153.75V152H232.75V153.75H231ZM232.75 153.75V152H234.5V153.75H232.75ZM234.5 153.75V152H236.25V153.75H234.5ZM236.25 153.75V152H238V153.75H236.25ZM231 155.5V153.75H232.75V155.5H231ZM238 155.5V153.75H239.75V155.5H238ZM231 157.25V155.5H232.75V157.25H231ZM239.75 157.25V155.5H241.5V157.25H239.75ZM231 159V157.25H232.75V159H231ZM239.75 159V157.25H241.5V159H239.75ZM231 160.75V159H232.75V160.75H231ZM239.75 160.75V159H241.5V160.75H239.75ZM231 162.5V160.75H232.75V162.5H231ZM239.75 162.5V160.75H241.5V162.5H239.75ZM231 164.25V162.5H232.75V164.25H231ZM238 164.25V162.5H239.75V164.25H238ZM231 166V164.25H232.75V166H231ZM232.75 166V164.25H234.5V166H232.75ZM234.5 166V164.25H236.25V166H234.5ZM236.25 166V164.25H238V166H236.25ZM243.25 153.75V152H245V153.75H243.25ZM245 153.75V152H246.75V153.75H245ZM246.75 153.75V152H248.5V153.75H246.75ZM248.5 153.75V152H250.25V153.75H248.5ZM250.25 153.75V152H252V153.75H250.25ZM243.25 155.5V153.75H245V155.5H243.25ZM243.25 157.25V155.5H245V157.25H243.25ZM243.25 159V157.25H245V159H243.25ZM245 159V157.25H246.75V159H245ZM246.75 159V157.25H248.5V159H246.75ZM248.5 159V157.25H250.25V159H248.5ZM243.25 160.75V159H245V160.75H243.25ZM243.25 162.5V160.75H245V162.5H243.25ZM243.25 164.25V162.5H245V164.25H243.25ZM243.25 166V164.25H245V166H243.25ZM245 166V164.25H246.75V166H245ZM246.75 166V164.25H248.5V166H246.75ZM248.5 166V164.25H250.25V166H248.5ZM250.25 166V164.25H252V166H250.25Z" fill="#DEDEDE"/>
<path d="M36.25 455.75V454H38V455.75H36.25ZM39.75 455.75V454H41.5V455.75H39.75ZM36.25 457.5V455.75H38V457.5H36.25ZM39.75 457.5V455.75H41.5V457.5H39.75ZM32.75 459.25V457.5H34.5V459.25H32.75ZM34.5 459.25V457.5H36.25V459.25H34.5ZM36.25 459.25V457.5H38V459.25H36.25ZM38 459.25V457.5H39.75V459.25H38ZM39.75 459.25V457.5H41.5V459.25H39.75ZM41.5 459.25V457.5H43.25V459.25H41.5ZM34.5 461V459.25H36.25V461H34.5ZM38 461V459.25H39.75V461H38ZM34.5 462.75V461H36.25V462.75H34.5ZM38 462.75V461H39.75V462.75H38ZM31 464.5V462.75H32.75V464.5H31ZM32.75 464.5V462.75H34.5V464.5H32.75ZM34.5 464.5V462.75H36.25V464.5H34.5ZM36.25 464.5V462.75H38V464.5H36.25ZM38 464.5V462.75H39.75V464.5H38ZM39.75 464.5V462.75H41.5V464.5H39.75ZM32.75 466.25V464.5H34.5V466.25H32.75ZM36.25 466.25V464.5H38V466.25H36.25ZM32.75 468V466.25H34.5V468H32.75ZM36.25 468V466.25H38V468H36.25ZM48.5 455.75V454H50.25V455.75H48.5ZM46.75 457.5V455.75H48.5V457.5H46.75ZM48.5 457.5V455.75H50.25V457.5H48.5ZM45 459.25V457.5H46.75V459.25H45ZM48.5 459.25V457.5H50.25V459.25H48.5ZM48.5 461V459.25H50.25V461H48.5ZM48.5 462.75V461H50.25V462.75H48.5ZM48.5 464.5V462.75H50.25V464.5H48.5ZM48.5 466.25V464.5H50.25V466.25H48.5ZM45 468V466.25H46.75V468H45ZM46.75 468V466.25H48.5V468H46.75ZM48.5 468V466.25H50.25V468H48.5ZM50.25 468V466.25H52V468H50.25ZM52 468V466.25H53.75V468H52ZM59 455.75V454H60.75V455.75H59ZM60.75 455.75V454H62.5V455.75H60.75ZM62.5 455.75V454H64.25V455.75H62.5ZM57.25 457.5V455.75H59V457.5H57.25ZM64.25 457.5V455.75H66V457.5H64.25ZM64.25 459.25V457.5H66V459.25H64.25ZM62.5 461V459.25H64.25V461H62.5ZM60.75 462.75V461H62.5V462.75H60.75ZM59 464.5V462.75H60.75V464.5H59ZM57.25 466.25V464.5H59V466.25H57.25ZM57.25 468V466.25H59V468H57.25ZM59 468V466.25H60.75V468H59ZM60.75 468V466.25H62.5V468H60.75ZM62.5 468V466.25H64.25V468H62.5ZM64.25 468V466.25H66V468H64.25ZM73 455.75V454H74.75V455.75H73ZM71.25 457.5V455.75H73V457.5H71.25ZM73 457.5V455.75H74.75V457.5H73ZM69.5 459.25V457.5H71.25V459.25H69.5ZM73 459.25V457.5H74.75V459.25H73ZM73 461V459.25H74.75V461H73ZM73 462.75V461H74.75V462.75H73ZM73 464.5V462.75H74.75V464.5H73ZM73 466.25V464.5H74.75V466.25H73ZM69.5 468V466.25H71.25V468H69.5ZM71.25 468V466.25H73V468H71.25ZM73 468V466.25H74.75V468H73ZM74.75 468V466.25H76.5V468H74.75ZM76.5 468V466.25H78.25V468H76.5ZM83.5 455.75V454H85.25V455.75H83.5ZM85.25 455.75V454H87V455.75H85.25ZM87 455.75V454H88.75V455.75H87ZM81.75 457.5V455.75H83.5V457.5H81.75ZM88.75 457.5V455.75H90.5V457.5H88.75ZM88.75 459.25V457.5H90.5V459.25H88.75ZM87 461V459.25H88.75V461H87ZM85.25 462.75V461H87V462.75H85.25ZM83.5 464.5V462.75H85.25V464.5H83.5ZM81.75 466.25V464.5H83.5V466.25H81.75ZM81.75 468V466.25H83.5V468H81.75ZM83.5 468V466.25H85.25V468H83.5ZM85.25 468V466.25H87V468H85.25ZM87 468V466.25H88.75V468H87ZM88.75 468V466.25H90.5V468H88.75ZM97.5 455.75V454H99.25V455.75H97.5ZM95.75 457.5V455.75H97.5V457.5H95.75ZM97.5 457.5V455.75H99.25V457.5H97.5ZM94 459.25V457.5H95.75V459.25H94ZM97.5 459.25V457.5H99.25V459.25H97.5ZM97.5 461V459.25H99.25V461H97.5ZM97.5 462.75V461H99.25V462.75H97.5ZM97.5 464.5V462.75H99.25V464.5H97.5ZM97.5 466.25V464.5H99.25V466.25H97.5ZM94 468V466.25H95.75V468H94ZM95.75 468V466.25H97.5V468H95.75ZM97.5 468V466.25H99.25V468H97.5ZM99.25 468V466.25H101V468H99.25ZM101 468V466.25H102.75V468H101ZM108 455.75V454H109.75V455.75H108ZM109.75 455.75V454H111.5V455.75H109.75ZM111.5 455.75V454H113.25V455.75H111.5ZM106.25 457.5V455.75H108V457.5H106.25ZM113.25 457.5V455.75H115V457.5H113.25ZM113.25 459.25V457.5H115V459.25H113.25ZM111.5 461V459.25H113.25V461H111.5ZM109.75 462.75V461H111.5V462.75H109.75ZM108 464.5V462.75H109.75V464.5H108ZM106.25 466.25V464.5H108V466.25H106.25ZM106.25 468V466.25H108V468H106.25ZM108 468V466.25H109.75V468H108ZM109.75 468V466.25H111.5V468H109.75ZM111.5 468V466.25H113.25V468H111.5ZM113.25 468V466.25H115V468H113.25Z" fill="#DEDEDE"/>
<path d="M155 140H115V180H155V140Z" fill="#DEDEDE"/>
<path d="M173.25 243.75V242H175V243.75H173.25ZM176.75 243.75V242H178.5V243.75H176.75ZM173.25 245.5V243.75H175V245.5H173.25ZM176.75 245.5V243.75H178.5V245.5H176.75ZM169.75 247.25V245.5H171.5V247.25H169.75ZM171.5 247.25V245.5H173.25V247.25H171.5ZM173.25 247.25V245.5H175V247.25H173.25ZM175 247.25V245.5H176.75V247.25H175ZM176.75 247.25V245.5H178.5V247.25H176.75ZM178.5 247.25V245.5H180.25V247.25H178.5ZM171.5 249V247.25H173.25V249H171.5ZM175 249V247.25H176.75V249H175ZM171.5 250.75V249H173.25V250.75H171.5ZM175 250.75V249H176.75V250.75H175ZM168 252.5V250.75H169.75V252.5H168ZM169.75 252.5V250.75H171.5V252.5H169.75ZM171.5 252.5V250.75H173.25V252.5H171.5ZM173.25 252.5V250.75H175V252.5H173.25ZM175 252.5V250.75H176.75V252.5H175ZM176.75 252.5V250.75H178.5V252.5H176.75ZM169.75 254.25V252.5H171.5V254.25H169.75ZM173.25 254.25V252.5H175V254.25H173.25ZM169.75 256V254.25H171.5V256H169.75ZM173.25 256V254.25H175V256H173.25ZM183.75 243.75V242H185.5V243.75H183.75ZM185.5 243.75V242H187.25V243.75H185.5ZM187.25 243.75V242H189V243.75H187.25ZM182 245.5V243.75H183.75V245.5H182ZM189 245.5V243.75H190.75V245.5H189ZM182 247.25V245.5H183.75V247.25H182ZM189 247.25V245.5H190.75V247.25H189ZM182 249V247.25H183.75V249H182ZM189 249V247.25H190.75V249H189ZM183.75 250.75V249H185.5V250.75H183.75ZM185.5 250.75V249H187.25V250.75H185.5ZM187.25 250.75V249H189V250.75H187.25ZM189 250.75V249H190.75V250.75H189ZM189 252.5V250.75H190.75V252.5H189ZM187.25 254.25V252.5H189V254.25H187.25ZM183.75 256V254.25H185.5V256H183.75ZM185.5 256V254.25H187.25V256H185.5ZM197.75 243.75V242H199.5V243.75H197.75ZM196 245.5V243.75H197.75V245.5H196ZM197.75 245.5V243.75H199.5V245.5H197.75ZM194.25 247.25V245.5H196V247.25H194.25ZM197.75 247.25V245.5H199.5V247.25H197.75ZM197.75 249V247.25H199.5V249H197.75ZM197.75 250.75V249H199.5V250.75H197.75ZM197.75 252.5V250.75H199.5V252.5H197.75ZM197.75 254.25V252.5H199.5V254.25H197.75ZM194.25 256V254.25H196V256H194.25ZM196 256V254.25H197.75V256H196ZM197.75 256V254.25H199.5V256H197.75ZM199.5 256V254.25H201.25V256H199.5ZM201.25 256V254.25H203V256H201.25ZM210 243.75V242H211.75V243.75H210ZM211.75 243.75V242H213.5V243.75H211.75ZM210 245.5V243.75H211.75V245.5H210ZM211.75 245.5V243.75H213.5V245.5H211.75ZM208.25 247.25V245.5H210V247.25H208.25ZM213.5 247.25V245.5H215.25V247.25H213.5ZM208.25 249V247.25H210V249H208.25ZM213.5 249V247.25H215.25V249H213.5ZM208.25 250.75V249H210V250.75H208.25ZM210 250.75V249H211.75V250.75H210ZM211.75 250.75V249H213.5V250.75H211.75ZM213.5 250.75V249H215.25V250.75H213.5ZM206.5 252.5V250.75H208.25V252.5H206.5ZM215.25 252.5V250.75H217V252.5H215.25ZM206.5 254.25V252.5H208.25V254.25H206.5ZM215.25 254.25V252.5H217V254.25H215.25ZM206.5 256V254.25H208.25V256H206.5ZM215.25 256V254.25H217V256H215.25ZM222.25 243.75V242H224V243.75H222.25ZM224 243.75V242H225.75V243.75H224ZM222.25 245.5V243.75H224V245.5H222.25ZM224 245.5V243.75H225.75V245.5H224ZM220.5 247.25V245.5H222.25V247.25H220.5ZM225.75 247.25V245.5H227.5V247.25H225.75ZM220.5 249V247.25H222.25V249H220.5ZM225.75 249V247.25H227.5V249H225.75ZM220.5 250.75V249H222.25V250.75H220.5ZM222.25 250.75V249H224V250.75H222.25ZM224 250.75V249H225.75V250.75H224ZM225.75 250.75V249H227.5V250.75H225.75ZM218.75 252.5V250.75H220.5V252.5H218.75ZM227.5 252.5V250.75H229.25V252.5H227.5ZM218.75 254.25V252.5H220.5V254.25H218.75ZM227.5 254.25V252.5H229.25V254.25H227.5ZM218.75 256V254.25H220.5V256H218.75ZM227.5 256V254.25H229.25V256H227.5ZM231 243.75V242H232.75V243.75H231ZM232.75 243.75V242H234.5V243.75H232.75ZM234.5 243.75V242H236.25V243.75H234.5ZM236.25 243.75V242H238V243.75H236.25ZM231 245.5V243.75H232.75V245.5H231ZM238 245.5V243.75H239.75V245.5H238ZM231 247.25V245.5H232.75V247.25H231ZM239.75 247.25V245.5H241.5V247.25H239.75ZM231 249V247.25H232.75V249H231ZM239.75 249V247.25H241.5V249H239.75ZM231 250.75V249H232.75V250.75H231ZM239.75 250.75V249H241.5V250.75H239.75ZM231 252.5V250.75H232.75V252.5H231ZM239.75 252.5V250.75H241.5V252.5H239.75ZM231 254.25V252.5H232.75V254.25H231ZM238 254.25V252.5H239.75V254.25H238ZM231 256V254.25H232.75V256H231ZM232.75 256V254.25H234.5V256H232.75ZM234.5 256V254.25H236.25V256H234.5ZM236.25 256V254.25H238V256H236.25ZM243.25 243.75V242H245V243.75H243.25ZM245 243.75V242H246.75V243.75H245ZM246.75 243.75V242H248.5V243.75H246.75ZM248.5 243.75V242H250.25V243.75H248.5ZM250.25 243.75V242H252V243.75H250.25ZM243.25 245.5V243.75H245V245.5H243.25ZM243.25 247.25V245.5H245V247.25H243.25ZM243.25 249V247.25H245V249H243.25ZM245 249V247.25H246.75V249H245ZM246.75 249V247.25H248.5V249H246.75ZM248.5 249V247.25H250.25V249H248.5ZM243.25 250.75V249H245V250.75H243.25ZM243.25 252.5V250.75H245V252.5H243.25ZM243.25 254.25V252.5H245V254.25H243.25ZM243.25 256V254.25H245V256H243.25Z" fill="#DEDEDE"/>
<path d="M155 230H115V270H155V230Z" fill="#91AADF"/>
<path d="M173.25 333.75V332H175V333.75H173.25ZM176.75 333.75V332H178.5V333.75H176.75ZM173.25 335.5V333.75H175V335.5H173.25ZM176.75 335.5V333.75H178.5V335.5H176.75ZM169.75 337.25V335.5H171.5V337.25H169.75ZM171.5 337.25V335.5H173.25V337.25H171.5ZM173.25 337.25V335.5H175V337.25H173.25ZM175 337.25V335.5H176.75V337.25H175ZM176.75 337.25V335.5H178.5V337.25H176.75ZM178.5 337.25V335.5H180.25V337.25H178.5ZM171.5 339V337.25H173.25V339H171.5ZM175 339V337.25H176.75V339H175ZM171.5 340.75V339H173.25V340.75H171.5ZM175 340.75V339H176.75V340.75H175ZM168 342.5V340.75H169.75V342.5H168ZM169.75 342.5V340.75H171.5V342.5H169.75ZM171.5 342.5V340.75H173.25V342.5H171.5ZM173.25 342.5V340.75H175V342.5H173.25ZM175 342.5V340.75H176.75V342.5H175ZM176.75 342.5V340.75H178.5V342.5H176.75ZM169.75 344.25V342.5H171.5V344.25H169.75ZM173.25 344.25V342.5H175V344.25H173.25ZM169.75 346V344.25H171.5V346H169.75ZM173.25 346V344.25H175V346H173.25ZM185.5 333.75V332H187.25V333.75H185.5ZM187.25 333.75V332H189V333.75H187.25ZM189 333.75V332H190.75V333.75H189ZM183.75 335.5V333.75H185.5V335.5H183.75ZM190.75 335.5V333.75H192.5V335.5H190.75ZM182 337.25V335.5H183.75V337.25H182ZM182 339V337.25H183.75V339H182ZM182 340.75V339H183.75V340.75H182ZM182 342.5V340.75H183.75V342.5H182ZM183.75 344.25V342.5H185.5V344.25H183.75ZM190.75 344.25V342.5H192.5V344.25H190.75ZM185.5 346V344.25H187.25V346H185.5ZM187.25 346V344.25H189V346H187.25ZM189 346V344.25H190.75V346H189ZM194.25 333.75V332H196V333.75H194.25ZM196 333.75V332H197.75V333.75H196ZM197.75 333.75V332H199.5V333.75H197.75ZM199.5 333.75V332H201.25V333.75H199.5ZM201.25 333.75V332H203V333.75H201.25ZM194.25 335.5V333.75H196V335.5H194.25ZM194.25 337.25V335.5H196V337.25H194.25ZM194.25 339V337.25H196V339H194.25ZM196 339V337.25H197.75V339H196ZM197.75 339V337.25H199.5V339H197.75ZM199.5 339V337.25H201.25V339H199.5ZM194.25 340.75V339H196V340.75H194.25ZM194.25 342.5V340.75H196V342.5H194.25ZM194.25 344.25V342.5H196V344.25H194.25ZM194.25 346V344.25H196V346H194.25ZM206.5 333.75V332H208.25V333.75H206.5ZM208.25 333.75V332H210V333.75H208.25ZM210 333.75V332H211.75V333.75H210ZM211.75 333.75V332H213.5V333.75H211.75ZM213.5 333.75V332H215.25V333.75H213.5ZM213.5 335.5V333.75H215.25V335.5H213.5ZM211.75 337.25V335.5H213.5V337.25H211.75ZM211.75 339V337.25H213.5V339H211.75ZM210 340.75V339H211.75V340.75H210ZM210 342.5V340.75H211.75V342.5H210ZM208.25 344.25V342.5H210V344.25H208.25ZM208.25 346V344.25H210V346H208.25ZM220.5 333.75V332H222.25V333.75H220.5ZM222.25 333.75V332H224V333.75H222.25ZM224 333.75V332H225.75V333.75H224ZM218.75 335.5V333.75H220.5V335.5H218.75ZM225.75 335.5V333.75H227.5V335.5H225.75ZM225.75 337.25V335.5H227.5V337.25H225.75ZM222.25 339V337.25H224V339H222.25ZM224 339V337.25H225.75V339H224ZM225.75 340.75V339H227.5V340.75H225.75ZM225.75 342.5V340.75H227.5V342.5H225.75ZM218.75 344.25V342.5H220.5V344.25H218.75ZM225.75 344.25V342.5H227.5V344.25H225.75ZM220.5 346V344.25H222.25V346H220.5ZM222.25 346V344.25H224V346H222.25ZM224 346V344.25H225.75V346H224ZM231 333.75V332H232.75V333.75H231ZM232.75 333.75V332H234.5V333.75H232.75ZM234.5 333.75V332H236.25V333.75H234.5ZM236.25 333.75V332H238V333.75H236.25ZM238 333.75V332H239.75V333.75H238ZM231 335.5V333.75H232.75V335.5H231ZM231 337.25V335.5H232.75V337.25H231ZM231 339V337.25H232.75V339H231ZM232.75 339V337.25H234.5V339H232.75ZM234.5 339V337.25H236.25V339H234.5ZM236.25 339V337.25H238V339H236.25ZM231 340.75V339H232.75V340.75H231ZM231 342.5V340.75H232.75V342.5H231ZM231 344.25V342.5H232.75V344.25H231ZM231 346V344.25H232.75V346H231ZM232.75 346V344.25H234.5V346H232.75ZM234.5 346V344.25H236.25V346H234.5ZM236.25 346V344.25H238V346H236.25ZM238 346V344.25H239.75V346H238ZM246.75 333.75V332H248.5V333.75H246.75ZM248.5 333.75V332H250.25V333.75H248.5ZM245 335.5V333.75H246.75V335.5H245ZM243.25 337.25V335.5H245V337.25H243.25ZM243.25 339V337.25H245V339H243.25ZM245 339V337.25H246.75V339H245ZM246.75 339V337.25H248.5V339H246.75ZM248.5 339V337.25H250.25V339H248.5ZM243.25 340.75V339H245V340.75H243.25ZM250.25 340.75V339H252V340.75H250.25ZM243.25 342.5V340.75H245V342.5H243.25ZM250.25 342.5V340.75H252V342.5H250.25ZM243.25 344.25V342.5H245V344.25H243.25ZM250.25 344.25V342.5H252V344.25H250.25ZM245 346V344.25H246.75V346H245ZM246.75 346V344.25H248.5V346H246.75ZM248.5 346V344.25H250.25V346H248.5Z" fill="#DEDEDE"/>
<path d="M155 320H115V360H155V320Z" fill="#CF73E6"/>
<path d="M383.25 333.75V332H385V333.75H383.25ZM386.75 333.75V332H388.5V333.75H386.75ZM383.25 335.5V333.75H385V335.5H383.25ZM386.75 335.5V333.75H388.5V335.5H386.75ZM379.75 337.25V335.5H381.5V337.25H379.75ZM381.5 337.25V335.5H383.25V337.25H381.5ZM383.25 337.25V335.5H385V337.25H383.25ZM385 337.25V335.5H386.75V337.25H385ZM386.75 337.25V335.5H388.5V337.25H386.75ZM388.5 337.25V335.5H390.25V337.25H388.5ZM381.5 339V337.25H383.25V339H381.5ZM385 339V337.25H386.75V339H385ZM381.5 340.75V339H383.25V340.75H381.5ZM385 340.75V339H386.75V340.75H385ZM378 342.5V340.75H379.75V342.5H378ZM379.75 342.5V340.75H381.5V342.5H379.75ZM381.5 342.5V340.75H383.25V342.5H381.5ZM383.25 342.5V340.75H385V342.5H383.25ZM385 342.5V340.75H386.75V342.5H385ZM386.75 342.5V340.75H388.5V342.5H386.75ZM379.75 344.25V342.5H381.5V344.25H379.75ZM383.25 344.25V342.5H385V344.25H383.25ZM379.75 346V344.25H381.5V346H379.75ZM383.25 346V344.25H385V346H383.25ZM392 333.75V332H393.75V333.75H392ZM393.75 333.75V332H395.5V333.75H393.75ZM395.5 333.75V332H397.25V333.75H395.5ZM397.25 333.75V332H399V333.75H397.25ZM399 333.75V332H400.75V333.75H399ZM392 335.5V333.75H393.75V335.5H392ZM392 337.25V335.5H393.75V337.25H392ZM392 339V337.25H393.75V339H392ZM393.75 339V337.25H395.5V339H393.75ZM395.5 339V337.25H397.25V339H395.5ZM397.25 339V337.25H399V339H397.25ZM392 340.75V339H393.75V340.75H392ZM392 342.5V340.75H393.75V342.5H392ZM392 344.25V342.5H393.75V344.25H392ZM392 346V344.25H393.75V346H392ZM406 333.75V332H407.75V333.75H406ZM407.75 333.75V332H409.5V333.75H407.75ZM409.5 333.75V332H411.25V333.75H409.5ZM404.25 335.5V333.75H406V335.5H404.25ZM411.25 335.5V333.75H413V335.5H411.25ZM404.25 337.25V335.5H406V337.25H404.25ZM411.25 337.25V335.5H413V337.25H411.25ZM404.25 339V337.25H406V339H404.25ZM407.75 339V337.25H409.5V339H407.75ZM411.25 339V337.25H413V339H411.25ZM404.25 340.75V339H406V340.75H404.25ZM407.75 340.75V339H409.5V340.75H407.75ZM411.25 340.75V339H413V340.75H411.25ZM404.25 342.5V340.75H406V342.5H404.25ZM411.25 342.5V340.75H413V342.5H411.25ZM404.25 344.25V342.5H406V344.25H404.25ZM411.25 344.25V342.5H413V344.25H411.25ZM406 346V344.25H407.75V346H406ZM407.75 346V344.25H409.5V346H407.75ZM409.5 346V344.25H411.25V346H409.5ZM416.5 333.75V332H418.25V333.75H416.5ZM418.25 333.75V332H420V333.75H418.25ZM420 333.75V332H421.75V333.75H420ZM421.75 333.75V332H423.5V333.75H421.75ZM416.5 335.5V333.75H418.25V335.5H416.5ZM423.5 335.5V333.75H425.25V335.5H423.5ZM416.5 337.25V335.5H418.25V337.25H416.5ZM425.25 337.25V335.5H427V337.25H425.25ZM416.5 339V337.25H418.25V339H416.5ZM425.25 339V337.25H427V339H425.25ZM416.5 340.75V339H418.25V340.75H416.5ZM425.25 340.75V339H427V340.75H425.25ZM416.5 342.5V340.75H418.25V342.5H416.5ZM425.25 342.5V340.75H427V342.5H425.25ZM416.5 344.25V342.5H418.25V344.25H416.5ZM423.5 344.25V342.5H425.25V344.25H423.5ZM416.5 346V344.25H418.25V346H416.5ZM418.25 346V344.25H420V346H418.25ZM420 346V344.25H421.75V346H420ZM421.75 346V344.25H423.5V346H421.75ZM428.75 333.75V332H430.5V333.75H428.75ZM430.5 333.75V332H432.25V333.75H430.5ZM432.25 333.75V332H434V333.75H432.25ZM434 333.75V332H435.75V333.75H434ZM435.75 333.75V332H437.5V333.75H435.75ZM428.75 335.5V333.75H430.5V335.5H428.75ZM428.75 337.25V335.5H430.5V337.25H428.75ZM428.75 339V337.25H430.5V339H428.75ZM430.5 339V337.25H432.25V339H430.5ZM432.25 339V337.25H434V339H432.25ZM434 339V337.25H435.75V339H434ZM435.75 340.75V339H437.5V340.75H435.75ZM435.75 342.5V340.75H437.5V342.5H435.75ZM428.75 344.25V342.5H430.5V344.25H428.75ZM435.75 344.25V342.5H437.5V344.25H435.75ZM430.5 346V344.25H432.25V346H430.5ZM432.25 346V344.25H434V346H432.25ZM434 346V344.25H435.75V346H434ZM442.75 333.75V332H444.5V333.75H442.75ZM444.5 333.75V332H446.25V333.75H444.5ZM446.25 333.75V332H448V333.75H446.25ZM441 335.5V333.75H442.75V335.5H441ZM448 335.5V333.75H449.75V335.5H448ZM441 337.25V335.5H442.75V337.25H441ZM448 337.25V335.5H449.75V337.25H448ZM441 339V337.25H442.75V339H441ZM444.5 339V337.25H446.25V339H444.5ZM448 339V337.25H449.75V339H448ZM441 340.75V339H442.75V340.75H441ZM444.5 340.75V339H446.25V340.75H444.5ZM448 340.75V339H449.75V340.75H448ZM441 342.5V340.75H442.75V342.5H441ZM448 342.5V340.75H449.75V342.5H448ZM441 344.25V342.5H442.75V344.25H441ZM448 344.25V342.5H449.75V344.25H448ZM442.75 346V344.25H444.5V346H442.75ZM444.5 346V344.25H446.25V346H444.5ZM446.25 346V344.25H448V346H446.25ZM456.75 333.75V332H458.5V333.75H456.75ZM458.5 333.75V332H460.25V333.75H458.5ZM460.25 333.75V332H462V333.75H460.25ZM455 335.5V333.75H456.75V335.5H455ZM462 335.5V333.75H463.75V335.5H462ZM453.25 337.25V335.5H455V337.25H453.25ZM453.25 339V337.25H455V339H453.25ZM453.25 340.75V339H455V340.75H453.25ZM453.25 342.5V340.75H455V342.5H453.25ZM455 344.25V342.5H456.75V344.25H455ZM462 344.25V342.5H463.75V344.25H462ZM456.75 346V344.25H458.5V346H456.75ZM458.5 346V344.25H460.25V346H458.5ZM460.25 346V344.25H462V346H460.25Z" fill="#DEDEDE"/>
<path d="M365 320H325V360H365V320Z" fill="#F0D50C"/>
<path d="M383.25 243.75V242H385V243.75H383.25ZM386.75 243.75V242H388.5V243.75H386.75ZM383.25 245.5V243.75H385V245.5H383.25ZM386.75 245.5V243.75H388.5V245.5H386.75ZM379.75 247.25V245.5H381.5V247.25H379.75ZM381.5 247.25V245.5H383.25V247.25H381.5ZM383.25 247.25V245.5H385V247.25H383.25ZM385 247.25V245.5H386.75V247.25H385ZM386.75 247.25V245.5H388.5V247.25H386.75ZM388.5 247.25V245.5H390.25V247.25H388.5ZM381.5 249V247.25H383.25V249H381.5ZM385 249V247.25H386.75V249H385ZM381.5 250.75V249H383.25V250.75H381.5ZM385 250.75V249H386.75V250.75H385ZM378 252.5V250.75H379.75V252.5H378ZM379.75 252.5V250.75H381.5V252.5H379.75ZM381.5 252.5V250.75H383.25V252.5H381.5ZM383.25 252.5V250.75H385V252.5H383.25ZM385 252.5V250.75H386.75V252.5H385ZM386.75 252.5V250.75H388.5V252.5H386.75ZM379.75 254.25V252.5H381.5V254.25H379.75ZM383.25 254.25V252.5H385V254.25H383.25ZM379.75 256V254.25H381.5V256H379.75ZM383.25 256V254.25H385V256H383.25ZM392 243.75V242H393.75V243.75H392ZM393.75 243.75V242H395.5V243.75H393.75ZM395.5 243.75V242H397.25V243.75H395.5ZM397.25 243.75V242H399V243.75H397.25ZM392 245.5V243.75H393.75V245.5H392ZM399 245.5V243.75H400.75V245.5H399ZM392 247.25V245.5H393.75V247.25H392ZM400.75 247.25V245.5H402.5V247.25H400.75ZM392 249V247.25H393.75V249H392ZM400.75 249V247.25H402.5V249H400.75ZM392 250.75V249H393.75V250.75H392ZM400.75 250.75V249H402.5V250.75H400.75ZM392 252.5V250.75H393.75V252.5H392ZM400.75 252.5V250.75H402.5V252.5H400.75ZM392 254.25V252.5H393.75V254.25H392ZM399 254.25V252.5H400.75V254.25H399ZM392 256V254.25H393.75V256H392ZM393.75 256V254.25H395.5V256H393.75ZM395.5 256V254.25H397.25V256H395.5ZM397.25 256V254.25H399V256H397.25ZM406 243.75V242H407.75V243.75H406ZM407.75 243.75V242H409.5V243.75H407.75ZM409.5 243.75V242H411.25V243.75H409.5ZM404.25 245.5V243.75H406V245.5H404.25ZM411.25 245.5V243.75H413V245.5H411.25ZM404.25 247.25V245.5H406V247.25H404.25ZM411.25 247.25V245.5H413V247.25H411.25ZM406 249V247.25H407.75V249H406ZM407.75 249V247.25H409.5V249H407.75ZM409.5 249V247.25H411.25V249H409.5ZM404.25 250.75V249H406V250.75H404.25ZM411.25 250.75V249H413V250.75H411.25ZM404.25 252.5V250.75H406V252.5H404.25ZM411.25 252.5V250.75H413V252.5H411.25ZM404.25 254.25V252.5H406V254.25H404.25ZM411.25 254.25V252.5H413V254.25H411.25ZM406 256V254.25H407.75V256H406ZM407.75 256V254.25H409.5V256H407.75ZM409.5 256V254.25H411.25V256H409.5ZM416.5 243.75V242H418.25V243.75H416.5ZM418.25 243.75V242H420V243.75H418.25ZM420 243.75V242H421.75V243.75H420ZM421.75 243.75V242H423.5V243.75H421.75ZM423.5 243.75V242H425.25V243.75H423.5ZM416.5 245.5V243.75H418.25V245.5H416.5ZM416.5 247.25V245.5H418.25V247.25H416.5ZM416.5 249V247.25H418.25V249H416.5ZM418.25 249V247.25H420V249H418.25ZM420 249V247.25H421.75V249H420ZM421.75 249V247.25H423.5V249H421.75ZM416.5 250.75V249H418.25V250.75H416.5ZM416.5 252.5V250.75H418.25V252.5H416.5ZM416.5 254.25V252.5H418.25V254.25H416.5ZM416.5 256V254.25H418.25V256H416.5ZM432.25 243.75V242H434V243.75H432.25ZM434 243.75V242H435.75V243.75H434ZM432.25 245.5V243.75H434V245.5H432.25ZM434 245.5V243.75H435.75V245.5H434ZM430.5 247.25V245.5H432.25V247.25H430.5ZM435.75 247.25V245.5H437.5V247.25H435.75ZM430.5 249V247.25H432.25V249H430.5ZM435.75 249V247.25H437.5V249H435.75ZM430.5 250.75V249H432.25V250.75H430.5ZM432.25 250.75V249H434V250.75H432.25ZM434 250.75V249H435.75V250.75H434ZM435.75 250.75V249H437.5V250.75H435.75ZM428.75 252.5V250.75H430.5V252.5H428.75ZM437.5 252.5V250.75H439.25V252.5H437.5ZM428.75 254.25V252.5H430.5V254.25H428.75ZM437.5 254.25V252.5H439.25V254.25H437.5ZM428.75 256V254.25H430.5V256H428.75ZM437.5 256V254.25H439.25V256H437.5ZM442.75 243.75V242H444.5V243.75H442.75ZM444.5 243.75V242H446.25V243.75H444.5ZM446.25 243.75V242H448V243.75H446.25ZM441 245.5V243.75H442.75V245.5H441ZM448 245.5V243.75H449.75V245.5H448ZM448 247.25V245.5H449.75V247.25H448ZM444.5 249V247.25H446.25V249H444.5ZM446.25 249V247.25H448V249H446.25ZM448 250.75V249H449.75V250.75H448ZM448 252.5V250.75H449.75V252.5H448ZM441 254.25V252.5H442.75V254.25H441ZM448 254.25V252.5H449.75V254.25H448ZM442.75 256V254.25H444.5V256H442.75ZM444.5 256V254.25H446.25V256H444.5ZM446.25 256V254.25H448V256H446.25ZM453.25 243.75V242H455V243.75H453.25ZM455 243.75V242H456.75V243.75H455ZM456.75 243.75V242H458.5V243.75H456.75ZM458.5 243.75V242H460.25V243.75H458.5ZM453.25 245.5V243.75H455V245.5H453.25ZM460.25 245.5V243.75H462V245.5H460.25ZM453.25 247.25V245.5H455V247.25H453.25ZM460.25 247.25V245.5H462V247.25H460.25ZM453.25 249V247.25H455V249H453.25ZM455 249V247.25H456.75V249H455ZM456.75 249V247.25H458.5V249H456.75ZM458.5 249V247.25H460.25V249H458.5ZM460.25 249V247.25H462V249H460.25ZM453.25 250.75V249H455V250.75H453.25ZM462 250.75V249H463.75V250.75H462ZM453.25 252.5V250.75H455V252.5H453.25ZM462 252.5V250.75H463.75V252.5H462ZM453.25 254.25V252.5H455V254.25H453.25ZM462 254.25V252.5H463.75V254.25H462ZM453.25 256V254.25H455V256H453.25ZM455 256V254.25H456.75V256H455ZM456.75 256V254.25H458.5V256H456.75ZM458.5 256V254.25H460.25V256H458.5ZM460.25 256V254.25H462V256H460.25Z" fill="#DEDEDE"/>
<path d="M365 230H325V270H365V230Z" fill="#D8FA3B"/>
<path d="M383.25 153.75V152H385V153.75H383.25ZM386.75 153.75V152H388.5V153.75H386.75ZM383.25 155.5V153.75H385V155.5H383.25ZM386.75 155.5V153.75H388.5V155.5H386.75ZM379.75 157.25V155.5H381.5V157.25H379.75ZM381.5 157.25V155.5H383.25V157.25H381.5ZM383.25 157.25V155.5H385V157.25H383.25ZM385 157.25V155.5H386.75V157.25H385ZM386.75 157.25V155.5H388.5V157.25H386.75ZM388.5 157.25V155.5H390.25V157.25H388.5ZM381.5 159V157.25H383.25V159H381.5ZM385 159V157.25H386.75V159H385ZM381.5 160.75V159H383.25V160.75H381.5ZM385 160.75V159H386.75V160.75H385ZM378 162.5V160.75H379.75V162.5H378ZM379.75 162.5V160.75H381.5V162.5H379.75ZM381.5 162.5V160.75H383.25V162.5H381.5ZM383.25 162.5V160.75H385V162.5H383.25ZM385 162.5V160.75H386.75V162.5H385ZM386.75 162.5V160.75H388.5V162.5H386.75ZM379.75 164.25V162.5H381.5V164.25H379.75ZM383.25 164.25V162.5H385V164.25H383.25ZM379.75 166V164.25H381.5V166H379.75ZM383.25 166V164.25H385V166H383.25ZM392 153.75V152H393.75V153.75H392ZM393.75 153.75V152H395.5V153.75H393.75ZM395.5 153.75V152H397.25V153.75H395.5ZM397.25 153.75V152H399V153.75H397.25ZM399 153.75V152H400.75V153.75H399ZM392 155.5V153.75H393.75V155.5H392ZM392 157.25V155.5H393.75V157.25H392ZM392 159V157.25H393.75V159H392ZM393.75 159V157.25H395.5V159H393.75ZM395.5 159V157.25H397.25V159H395.5ZM397.25 159V157.25H399V159H397.25ZM399 160.75V159H400.75V160.75H399ZM399 162.5V160.75H400.75V162.5H399ZM392 164.25V162.5H393.75V164.25H392ZM399 164.25V162.5H400.75V164.25H399ZM393.75 166V164.25H395.5V166H393.75ZM395.5 166V164.25H397.25V166H395.5ZM397.25 166V164.25H399V166H397.25ZM404.25 153.75V152H406V153.75H404.25ZM406 153.75V152H407.75V153.75H406ZM407.75 153.75V152H409.5V153.75H407.75ZM409.5 153.75V152H411.25V153.75H409.5ZM411.25 153.75V152H413V153.75H411.25ZM411.25 155.5V153.75H413V155.5H411.25ZM409.5 157.25V155.5H411.25V157.25H409.5ZM409.5 159V157.25H411.25V159H409.5ZM407.75 160.75V159H409.5V160.75H407.75ZM407.75 162.5V160.75H409.5V162.5H407.75ZM406 164.25V162.5H407.75V164.25H406ZM406 166V164.25H407.75V166H406ZM416.5 153.75V152H418.25V153.75H416.5ZM418.25 153.75V152H420V153.75H418.25ZM420 153.75V152H421.75V153.75H420ZM421.75 153.75V152H423.5V153.75H421.75ZM416.5 155.5V153.75H418.25V155.5H416.5ZM423.5 155.5V153.75H425.25V155.5H423.5ZM416.5 157.25V155.5H418.25V157.25H416.5ZM423.5 157.25V155.5H425.25V157.25H423.5ZM416.5 159V157.25H418.25V159H416.5ZM418.25 159V157.25H420V159H418.25ZM420 159V157.25H421.75V159H420ZM421.75 159V157.25H423.5V159H421.75ZM423.5 159V157.25H425.25V159H423.5ZM416.5 160.75V159H418.25V160.75H416.5ZM425.25 160.75V159H427V160.75H425.25ZM416.5 162.5V160.75H418.25V162.5H416.5ZM425.25 162.5V160.75H427V162.5H425.25ZM416.5 164.25V162.5H418.25V164.25H416.5ZM425.25 164.25V162.5H427V164.25H425.25ZM416.5 166V164.25H418.25V166H416.5ZM418.25 166V164.25H420V166H418.25ZM420 166V164.25H421.75V166H420ZM421.75 166V164.25H423.5V166H421.75ZM423.5 166V164.25H425.25V166H423.5ZM432.25 153.75V152H434V153.75H432.25ZM434 153.75V152H435.75V153.75H434ZM432.25 155.5V153.75H434V155.5H432.25ZM434 155.5V153.75H435.75V155.5H434ZM430.5 157.25V155.5H432.25V157.25H430.5ZM435.75 157.25V155.5H437.5V157.25H435.75ZM430.5 159V157.25H432.25V159H430.5ZM435.75 159V157.25H437.5V159H435.75ZM430.5 160.75V159H432.25V160.75H430.5ZM432.25 160.75V159H434V160.75H432.25ZM434 160.75V159H435.75V160.75H434ZM435.75 160.75V159H437.5V160.75H435.75ZM428.75 162.5V160.75H430.5V162.5H428.75ZM437.5 162.5V160.75H439.25V162.5H437.5ZM428.75 164.25V162.5H430.5V164.25H428.75ZM437.5 164.25V162.5H439.25V164.25H437.5ZM428.75 166V164.25H430.5V166H428.75ZM437.5 166V164.25H439.25V166H437.5ZM442.75 153.75V152H444.5V153.75H442.75ZM444.5 153.75V152H446.25V153.75H444.5ZM446.25 153.75V152H448V153.75H446.25ZM441 155.5V153.75H442.75V155.5H441ZM448 155.5V153.75H449.75V155.5H448ZM448 157.25V155.5H449.75V157.25H448ZM444.5 159V157.25H446.25V159H444.5ZM446.25 159V157.25H448V159H446.25ZM448 160.75V159H449.75V160.75H448ZM448 162.5V160.75H449.75V162.5H448ZM441 164.25V162.5H442.75V164.25H441ZM448 164.25V162.5H449.75V164.25H448ZM442.75 166V164.25H444.5V166H442.75ZM444.5 166V164.25H446.25V166H444.5ZM446.25 166V164.25H448V166H446.25ZM453.25 153.75V152H455V153.75H453.25ZM455 153.75V152H456.75V153.75H455ZM456.75 153.75V152H458.5V153.75H456.75ZM458.5 153.75V152H460.25V153.75H458.5ZM460.25 153.75V152H462V153.75H460.25ZM460.25 155.5V153.75H462V155.5H460.25ZM458.5 157.25V155.5H460.25V157.25H458.5ZM458.5 159V157.25H460.25V159H458.5ZM456.75 160.75V159H458.5V160.75H456.75ZM456.75 162.5V160.75H458.5V162.5H456.75ZM455 164.25V162.5H456.75V164.25H455ZM455 166V164.25H456.75V166H455Z" fill="#DEDEDE"/>
<path d="M365 140H325V180H365V140Z" fill="#57BA37"/>
<path d="M593.25 243.75V242H595V243.75H593.25ZM596.75 243.75V242H598.5V243.75H596.75ZM593.25 245.5V243.75H595V245.5H593.25ZM596.75 245.5V243.75H598.5V245.5H596.75ZM589.75 247.25V245.5H591.5V247.25H589.75ZM591.5 247.25V245.5H593.25V247.25H591.5ZM593.25 247.25V245.5H595V247.25H593.25ZM595 247.25V245.5H596.75V247.25H595ZM596.75 247.25V245.5H598.5V247.25H596.75ZM598.5 247.25V245.5H600.25V247.25H598.5ZM591.5 249V247.25H593.25V249H591.5ZM595 249V247.25H596.75V249H595ZM591.5 250.75V249H593.25V250.75H591.5ZM595 250.75V249H596.75V250.75H595ZM588 252.5V250.75H589.75V252.5H588ZM589.75 252.5V250.75H591.5V252.5H589.75ZM591.5 252.5V250.75H593.25V252.5H591.5ZM593.25 252.5V250.75H595V252.5H593.25ZM595 252.5V250.75H596.75V252.5H595ZM596.75 252.5V250.75H598.5V252.5H596.75ZM589.75 254.25V252.5H591.5V254.25H589.75ZM593.25 254.25V252.5H595V254.25H593.25ZM589.75 256V254.25H591.5V256H589.75ZM593.25 256V254.25H595V256H593.25ZM602 243.75V242H603.75V243.75H602ZM603.75 243.75V242H605.5V243.75H603.75ZM605.5 243.75V242H607.25V243.75H605.5ZM607.25 243.75V242H609V243.75H607.25ZM609 243.75V242H610.75V243.75H609ZM602 245.5V243.75H603.75V245.5H602ZM602 247.25V245.5H603.75V247.25H602ZM602 249V247.25H603.75V249H602ZM603.75 249V247.25H605.5V249H603.75ZM605.5 249V247.25H607.25V249H605.5ZM607.25 249V247.25H609V249H607.25ZM602 250.75V249H603.75V250.75H602ZM602 252.5V250.75H603.75V252.5H602ZM602 254.25V252.5H603.75V254.25H602ZM602 256V254.25H603.75V256H602ZM617.75 243.75V242H619.5V243.75H617.75ZM619.5 243.75V242H621.25V243.75H619.5ZM616 245.5V243.75H617.75V245.5H616ZM614.25 247.25V245.5H616V247.25H614.25ZM614.25 249V247.25H616V249H614.25ZM616 249V247.25H617.75V249H616ZM617.75 249V247.25H619.5V249H617.75ZM619.5 249V247.25H621.25V249H619.5ZM614.25 250.75V249H616V250.75H614.25ZM621.25 250.75V249H623V250.75H621.25ZM614.25 252.5V250.75H616V252.5H614.25ZM621.25 252.5V250.75H623V252.5H621.25ZM614.25 254.25V252.5H616V254.25H614.25ZM621.25 254.25V252.5H623V254.25H621.25ZM616 256V254.25H617.75V256H616ZM617.75 256V254.25H619.5V256H617.75ZM619.5 256V254.25H621.25V256H619.5ZM630 243.75V242H631.75V243.75H630ZM631.75 243.75V242H633.5V243.75H631.75ZM628.25 245.5V243.75H630V245.5H628.25ZM626.5 247.25V245.5H628.25V247.25H626.5ZM626.5 249V247.25H628.25V249H626.5ZM628.25 249V247.25H630V249H628.25ZM630 249V247.25H631.75V249H630ZM631.75 249V247.25H633.5V249H631.75ZM626.5 250.75V249H628.25V250.75H626.5ZM633.5 250.75V249H635.25V250.75H633.5ZM626.5 252.5V250.75H628.25V252.5H626.5ZM633.5 252.5V250.75H635.25V252.5H633.5ZM626.5 254.25V252.5H628.25V254.25H626.5ZM633.5 254.25V252.5H635.25V254.25H633.5ZM628.25 256V254.25H630V256H628.25ZM630 256V254.25H631.75V256H630ZM631.75 256V254.25H633.5V256H631.75ZM642.25 243.75V242H644V243.75H642.25ZM640.5 245.5V243.75H642.25V245.5H640.5ZM642.25 245.5V243.75H644V245.5H642.25ZM638.75 247.25V245.5H640.5V247.25H638.75ZM642.25 247.25V245.5H644V247.25H642.25ZM642.25 249V247.25H644V249H642.25ZM642.25 250.75V249H644V250.75H642.25ZM642.25 252.5V250.75H644V252.5H642.25ZM642.25 254.25V252.5H644V254.25H642.25ZM638.75 256V254.25H640.5V256H638.75ZM640.5 256V254.25H642.25V256H640.5ZM642.25 256V254.25H644V256H642.25ZM644 256V254.25H645.75V256H644ZM645.75 256V254.25H647.5V256H645.75ZM652.75 243.75V242H654.5V243.75H652.75ZM654.5 243.75V242H656.25V243.75H654.5ZM656.25 243.75V242H658V243.75H656.25ZM651 245.5V243.75H652.75V245.5H651ZM658 245.5V243.75H659.75V245.5H658ZM651 247.25V245.5H652.75V247.25H651ZM658 247.25V245.5H659.75V247.25H658ZM651 249V247.25H652.75V249H651ZM654.5 249V247.25H656.25V249H654.5ZM658 249V247.25H659.75V249H658ZM651 250.75V249H652.75V250.75H651ZM654.5 250.75V249H656.25V250.75H654.5ZM658 250.75V249H659.75V250.75H658ZM651 252.5V250.75H652.75V252.5H651ZM658 252.5V250.75H659.75V252.5H658ZM651 254.25V252.5H652.75V254.25H651ZM658 254.25V252.5H659.75V254.25H658ZM652.75 256V254.25H654.5V256H652.75ZM654.5 256V254.25H656.25V256H654.5ZM656.25 256V254.25H658V256H656.25ZM665 243.75V242H666.75V243.75H665ZM666.75 243.75V242H668.5V243.75H666.75ZM668.5 243.75V242H670.25V243.75H668.5ZM663.25 245.5V243.75H665V245.5H663.25ZM670.25 245.5V243.75H672V245.5H670.25ZM663.25 247.25V245.5H665V247.25H663.25ZM670.25 247.25V245.5H672V247.25H670.25ZM663.25 249V247.25H665V249H663.25ZM666.75 249V247.25H668.5V249H666.75ZM670.25 249V247.25H672V249H670.25ZM663.25 250.75V249H665V250.75H663.25ZM666.75 250.75V249H668.5V250.75H666.75ZM670.25 250.75V249H672V250.75H670.25ZM663.25 252.5V250.75H665V252.5H663.25ZM670.25 252.5V250.75H672V252.5H670.25ZM663.25 254.25V252.5H665V254.25H663.25ZM670.25 254.25V252.5H672V254.25H670.25ZM665 256V254.25H666.75V256H665ZM666.75 256V254.25H668.5V256H666.75ZM668.5 256V254.25H670.25V256H668.5Z" fill="#DEDEDE"/>
<path d="M575 230H535V270H575V230Z" fill="#F66100"/>
<path d="M803.25 153.75V152H805V153.75H803.25ZM806.75 153.75V152H808.5V153.75H806.75ZM803.25 155.5V153.75H805V155.5H803.25ZM806.75 155.5V153.75H808.5V155.5H806.75ZM799.75 157.25V155.5H801.5V157.25H799.75ZM801.5 157.25V155.5H803.25V157.25H801.5ZM803.25 157.25V155.5H805V157.25H803.25ZM805 157.25V155.5H806.75V157.25H805ZM806.75 157.25V155.5H808.5V157.25H806.75ZM808.5 157.25V155.5H810.25V157.25H808.5ZM801.5 159V157.25H803.25V159H801.5ZM805 159V157.25H806.75V159H805ZM801.5 160.75V159H803.25V160.75H801.5ZM805 160.75V159H806.75V160.75H805ZM798 162.5V160.75H799.75V162.5H798ZM799.75 162.5V160.75H801.5V162.5H799.75ZM801.5 162.5V160.75H803.25V162.5H801.5ZM803.25 162.5V160.75H805V162.5H803.25ZM805 162.5V160.75H806.75V162.5H805ZM806.75 162.5V160.75H808.5V162.5H806.75ZM799.75 164.25V162.5H801.5V164.25H799.75ZM803.25 164.25V162.5H805V164.25H803.25ZM799.75 166V164.25H801.5V166H799.75ZM803.25 166V164.25H805V166H803.25ZM813.75 153.75V152H815.5V153.75H813.75ZM815.5 153.75V152H817.25V153.75H815.5ZM817.25 153.75V152H819V153.75H817.25ZM812 155.5V153.75H813.75V155.5H812ZM819 155.5V153.75H820.75V155.5H819ZM819 157.25V155.5H820.75V157.25H819ZM817.25 159V157.25H819V159H817.25ZM815.5 160.75V159H817.25V160.75H815.5ZM813.75 162.5V160.75H815.5V162.5H813.75ZM812 164.25V162.5H813.75V164.25H812ZM812 166V164.25H813.75V166H812ZM813.75 166V164.25H815.5V166H813.75ZM815.5 166V164.25H817.25V166H815.5ZM817.25 166V164.25H819V166H817.25ZM819 166V164.25H820.75V166H819ZM827.75 153.75V152H829.5V153.75H827.75ZM829.5 153.75V152H831.25V153.75H829.5ZM826 155.5V153.75H827.75V155.5H826ZM824.25 157.25V155.5H826V157.25H824.25ZM824.25 159V157.25H826V159H824.25ZM826 159V157.25H827.75V159H826ZM827.75 159V157.25H829.5V159H827.75ZM829.5 159V157.25H831.25V159H829.5ZM824.25 160.75V159H826V160.75H824.25ZM831.25 160.75V159H833V160.75H831.25ZM824.25 162.5V160.75H826V162.5H824.25ZM831.25 162.5V160.75H833V162.5H831.25ZM824.25 164.25V162.5H826V164.25H824.25ZM831.25 164.25V162.5H833V164.25H831.25ZM826 166V164.25H827.75V166H826ZM827.75 166V164.25H829.5V166H827.75ZM829.5 166V164.25H831.25V166H829.5ZM838.25 153.75V152H840V153.75H838.25ZM840 153.75V152H841.75V153.75H840ZM841.75 153.75V152H843.5V153.75H841.75ZM836.5 155.5V153.75H838.25V155.5H836.5ZM843.5 155.5V153.75H845.25V155.5H843.5ZM843.5 157.25V155.5H845.25V157.25H843.5ZM841.75 159V157.25H843.5V159H841.75ZM840 160.75V159H841.75V160.75H840ZM838.25 162.5V160.75H840V162.5H838.25ZM836.5 164.25V162.5H838.25V164.25H836.5ZM836.5 166V164.25H838.25V166H836.5ZM838.25 166V164.25H840V166H838.25ZM840 166V164.25H841.75V166H840ZM841.75 166V164.25H843.5V166H841.75ZM843.5 166V164.25H845.25V166H843.5ZM852.25 153.75V152H854V153.75H852.25ZM854 153.75V152H855.75V153.75H854ZM850.5 155.5V153.75H852.25V155.5H850.5ZM848.75 157.25V155.5H850.5V157.25H848.75ZM848.75 159V157.25H850.5V159H848.75ZM850.5 159V157.25H852.25V159H850.5ZM852.25 159V157.25H854V159H852.25ZM854 159V157.25H855.75V159H854ZM848.75 160.75V159H850.5V160.75H848.75ZM855.75 160.75V159H857.5V160.75H855.75ZM848.75 162.5V160.75H850.5V162.5H848.75ZM855.75 162.5V160.75H857.5V162.5H855.75ZM848.75 164.25V162.5H850.5V164.25H848.75ZM855.75 164.25V162.5H857.5V164.25H855.75ZM850.5 166V164.25H852.25V166H850.5ZM852.25 166V164.25H854V166H852.25ZM854 166V164.25H855.75V166H854ZM862.75 153.75V152H864.5V153.75H862.75ZM864.5 153.75V152H866.25V153.75H864.5ZM866.25 153.75V152H868V153.75H866.25ZM861 155.5V153.75H862.75V155.5H861ZM868 155.5V153.75H869.75V155.5H868ZM868 157.25V155.5H869.75V157.25H868ZM866.25 159V157.25H868V159H866.25ZM864.5 160.75V159H866.25V160.75H864.5ZM862.75 162.5V160.75H864.5V162.5H862.75ZM861 164.25V162.5H862.75V164.25H861ZM861 166V164.25H862.75V166H861ZM862.75 166V164.25H864.5V166H862.75ZM864.5 166V164.25H866.25V166H864.5ZM866.25 166V164.25H868V166H866.25ZM868 166V164.25H869.75V166H868ZM876.75 153.75V152H878.5V153.75H876.75ZM878.5 153.75V152H880.25V153.75H878.5ZM875 155.5V153.75H876.75V155.5H875ZM873.25 157.25V155.5H875V157.25H873.25ZM873.25 159V157.25H875V159H873.25ZM875 159V157.25H876.75V159H875ZM876.75 159V157.25H878.5V159H876.75ZM878.5 159V157.25H880.25V159H878.5ZM873.25 160.75V159H875V160.75H873.25ZM880.25 160.75V159H882V160.75H880.25ZM873.25 162.5V160.75H875V162.5H873.25ZM880.25 162.5V160.75H882V162.5H880.25ZM873.25 164.25V162.5H875V164.25H873.25ZM880.25 164.25V162.5H882V164.25H880.25ZM875 166V164.25H876.75V166H875ZM876.75 166V164.25H878.5V166H876.75ZM878.5 166V164.25H880.25V166H878.5Z" fill="#DEDEDE"/>
<path d="M785 140H745V180H785V140Z" fill="#262626"/>
<path d="M803.25 243.75V242H805V243.75H803.25ZM806.75 243.75V242H808.5V243.75H806.75ZM803.25 245.5V243.75H805V245.5H803.25ZM806.75 245.5V243.75H808.5V245.5H806.75ZM799.75 247.25V245.5H801.5V247.25H799.75ZM801.5 247.25V245.5H803.25V247.25H801.5ZM803.25 247.25V245.5H805V247.25H803.25ZM805 247.25V245.5H806.75V247.25H805ZM806.75 247.25V245.5H808.5V247.25H806.75ZM808.5 247.25V245.5H810.25V247.25H808.5ZM801.5 249V247.25H803.25V249H801.5ZM805 249V247.25H806.75V249H805ZM801.5 250.75V249H803.25V250.75H801.5ZM805 250.75V249H806.75V250.75H805ZM798 252.5V250.75H799.75V252.5H798ZM799.75 252.5V250.75H801.5V252.5H799.75ZM801.5 252.5V250.75H803.25V252.5H801.5ZM803.25 252.5V250.75H805V252.5H803.25ZM805 252.5V250.75H806.75V252.5H805ZM806.75 252.5V250.75H808.5V252.5H806.75ZM799.75 254.25V252.5H801.5V254.25H799.75ZM803.25 254.25V252.5H805V254.25H803.25ZM799.75 256V254.25H801.5V256H799.75ZM803.25 256V254.25H805V256H803.25ZM812 243.75V242H813.75V243.75H812ZM813.75 243.75V242H815.5V243.75H813.75ZM815.5 243.75V242H817.25V243.75H815.5ZM817.25 243.75V242H819V243.75H817.25ZM812 245.5V243.75H813.75V245.5H812ZM819 245.5V243.75H820.75V245.5H819ZM812 247.25V245.5H813.75V247.25H812ZM819 247.25V245.5H820.75V247.25H819ZM812 249V247.25H813.75V249H812ZM813.75 249V247.25H815.5V249H813.75ZM815.5 249V247.25H817.25V249H815.5ZM817.25 249V247.25H819V249H817.25ZM819 249V247.25H820.75V249H819ZM812 250.75V249H813.75V250.75H812ZM820.75 250.75V249H822.5V250.75H820.75ZM812 252.5V250.75H813.75V252.5H812ZM820.75 252.5V250.75H822.5V252.5H820.75ZM812 254.25V252.5H813.75V254.25H812ZM820.75 254.25V252.5H822.5V254.25H820.75ZM812 256V254.25H813.75V256H812ZM813.75 256V254.25H815.5V256H813.75ZM815.5 256V254.25H817.25V256H815.5ZM817.25 256V254.25H819V256H817.25ZM819 256V254.25H820.75V256H819ZM824.25 243.75V242H826V243.75H824.25ZM826 243.75V242H827.75V243.75H826ZM827.75 243.75V242H829.5V243.75H827.75ZM829.5 243.75V242H831.25V243.75H829.5ZM831.25 243.75V242H833V243.75H831.25ZM831.25 245.5V243.75H833V245.5H831.25ZM829.5 247.25V245.5H831.25V247.25H829.5ZM829.5 249V247.25H831.25V249H829.5ZM827.75 250.75V249H829.5V250.75H827.75ZM827.75 252.5V250.75H829.5V252.5H827.75ZM826 254.25V252.5H827.75V254.25H826ZM826 256V254.25H827.75V256H826ZM840 243.75V242H841.75V243.75H840ZM841.75 243.75V242H843.5V243.75H841.75ZM843.5 243.75V242H845.25V243.75H843.5ZM838.25 245.5V243.75H840V245.5H838.25ZM845.25 245.5V243.75H847V245.5H845.25ZM836.5 247.25V245.5H838.25V247.25H836.5ZM836.5 249V247.25H838.25V249H836.5ZM836.5 250.75V249H838.25V250.75H836.5ZM836.5 252.5V250.75H838.25V252.5H836.5ZM838.25 254.25V252.5H840V254.25H838.25ZM845.25 254.25V252.5H847V254.25H845.25ZM840 256V254.25H841.75V256H840ZM841.75 256V254.25H843.5V256H841.75ZM843.5 256V254.25H845.25V256H843.5ZM848.75 243.75V242H850.5V243.75H848.75ZM850.5 243.75V242H852.25V243.75H850.5ZM852.25 243.75V242H854V243.75H852.25ZM854 243.75V242H855.75V243.75H854ZM848.75 245.5V243.75H850.5V245.5H848.75ZM855.75 245.5V243.75H857.5V245.5H855.75ZM848.75 247.25V245.5H850.5V247.25H848.75ZM855.75 247.25V245.5H857.5V247.25H855.75ZM848.75 249V247.25H850.5V249H848.75ZM850.5 249V247.25H852.25V249H850.5ZM852.25 249V247.25H854V249H852.25ZM854 249V247.25H855.75V249H854ZM855.75 249V247.25H857.5V249H855.75ZM848.75 250.75V249H850.5V250.75H848.75ZM857.5 250.75V249H859.25V250.75H857.5ZM848.75 252.5V250.75H850.5V252.5H848.75ZM857.5 252.5V250.75H859.25V252.5H857.5ZM848.75 254.25V252.5H850.5V254.25H848.75ZM857.5 254.25V252.5H859.25V254.25H857.5ZM848.75 256V254.25H850.5V256H848.75ZM850.5 256V254.25H852.25V256H850.5ZM852.25 256V254.25H854V256H852.25ZM854 256V254.25H855.75V256H854ZM855.75 256V254.25H857.5V256H855.75ZM861 243.75V242H862.75V243.75H861ZM862.75 243.75V242H864.5V243.75H862.75ZM864.5 243.75V242H866.25V243.75H864.5ZM866.25 243.75V242H868V243.75H866.25ZM868 243.75V242H869.75V243.75H868ZM861 245.5V243.75H862.75V245.5H861ZM861 247.25V245.5H862.75V247.25H861ZM861 249V247.25H862.75V249H861ZM862.75 249V247.25H864.5V249H862.75ZM864.5 249V247.25H866.25V249H864.5ZM866.25 249V247.25H868V249H866.25ZM861 250.75V249H862.75V250.75H861ZM861 252.5V250.75H862.75V252.5H861ZM861 254.25V252.5H862.75V254.25H861ZM861 256V254.25H862.75V256H861ZM880.25 243.75V242H882V243.75H880.25ZM878.5 245.5V243.75H880.25V245.5H878.5ZM880.25 245.5V243.75H882V245.5H880.25ZM876.75 247.25V245.5H878.5V247.25H876.75ZM880.25 247.25V245.5H882V247.25H880.25ZM875 249V247.25H876.75V249H875ZM880.25 249V247.25H882V249H880.25ZM873.25 250.75V249H875V250.75H873.25ZM880.25 250.75V249H882V250.75H880.25ZM873.25 252.5V250.75H875V252.5H873.25ZM875 252.5V250.75H876.75V252.5H875ZM876.75 252.5V250.75H878.5V252.5H876.75ZM878.5 252.5V250.75H880.25V252.5H878.5ZM880.25 252.5V250.75H882V252.5H880.25ZM882 252.5V250.75H883.75V252.5H882ZM880.25 254.25V252.5H882V254.25H880.25ZM880.25 256V254.25H882V256H880.25Z" fill="#DEDEDE"/>
<path d="M785 230H745V270H785V230Z" fill="#B7CBF4"/>
<path d="M803.25 333.75V332H805V333.75H803.25ZM806.75 333.75V332H808.5V333.75H806.75ZM803.25 335.5V333.75H805V335.5H803.25ZM806.75 335.5V333.75H808.5V335.5H806.75ZM799.75 337.25V335.5H801.5V337.25H799.75ZM801.5 337.25V335.5H803.25V337.25H801.5ZM803.25 337.25V335.5H805V337.25H803.25ZM805 337.25V335.5H806.75V337.25H805ZM806.75 337.25V335.5H808.5V337.25H806.75ZM808.5 337.25V335.5H810.25V337.25H808.5ZM801.5 339V337.25H803.25V339H801.5ZM805 339V337.25H806.75V339H805ZM801.5 340.75V339H803.25V340.75H801.5ZM805 340.75V339H806.75V340.75H805ZM798 342.5V340.75H799.75V342.5H798ZM799.75 342.5V340.75H801.5V342.5H799.75ZM801.5 342.5V340.75H803.25V342.5H801.5ZM803.25 342.5V340.75H805V342.5H803.25ZM805 342.5V340.75H806.75V342.5H805ZM806.75 342.5V340.75H808.5V342.5H806.75ZM799.75 344.25V342.5H801.5V344.25H799.75ZM803.25 344.25V342.5H805V344.25H803.25ZM799.75 346V344.25H801.5V346H799.75ZM803.25 346V344.25H805V346H803.25ZM813.75 333.75V332H815.5V333.75H813.75ZM815.5 333.75V332H817.25V333.75H815.5ZM817.25 333.75V332H819V333.75H817.25ZM812 335.5V333.75H813.75V335.5H812ZM819 335.5V333.75H820.75V335.5H819ZM812 337.25V335.5H813.75V337.25H812ZM819 337.25V335.5H820.75V337.25H819ZM813.75 339V337.25H815.5V339H813.75ZM815.5 339V337.25H817.25V339H815.5ZM817.25 339V337.25H819V339H817.25ZM812 340.75V339H813.75V340.75H812ZM819 340.75V339H820.75V340.75H819ZM812 342.5V340.75H813.75V342.5H812ZM819 342.5V340.75H820.75V342.5H819ZM812 344.25V342.5H813.75V344.25H812ZM819 344.25V342.5H820.75V344.25H819ZM813.75 346V344.25H815.5V346H813.75ZM815.5 346V344.25H817.25V346H815.5ZM817.25 346V344.25H819V346H817.25ZM826 333.75V332H827.75V333.75H826ZM827.75 333.75V332H829.5V333.75H827.75ZM829.5 333.75V332H831.25V333.75H829.5ZM824.25 335.5V333.75H826V335.5H824.25ZM831.25 335.5V333.75H833V335.5H831.25ZM831.25 337.25V335.5H833V337.25H831.25ZM829.5 339V337.25H831.25V339H829.5ZM827.75 340.75V339H829.5V340.75H827.75ZM826 342.5V340.75H827.75V342.5H826ZM824.25 344.25V342.5H826V344.25H824.25ZM824.25 346V344.25H826V346H824.25ZM826 346V344.25H827.75V346H826ZM827.75 346V344.25H829.5V346H827.75ZM829.5 346V344.25H831.25V346H829.5ZM831.25 346V344.25H833V346H831.25ZM840 333.75V332H841.75V333.75H840ZM838.25 335.5V333.75H840V335.5H838.25ZM840 335.5V333.75H841.75V335.5H840ZM836.5 337.25V335.5H838.25V337.25H836.5ZM840 337.25V335.5H841.75V337.25H840ZM840 339V337.25H841.75V339H840ZM840 340.75V339H841.75V340.75H840ZM840 342.5V340.75H841.75V342.5H840ZM840 344.25V342.5H841.75V344.25H840ZM836.5 346V344.25H838.25V346H836.5ZM838.25 346V344.25H840V346H838.25ZM840 346V344.25H841.75V346H840ZM841.75 346V344.25H843.5V346H841.75ZM843.5 346V344.25H845.25V346H843.5ZM852.25 333.75V332H854V333.75H852.25ZM854 333.75V332H855.75V333.75H854ZM852.25 335.5V333.75H854V335.5H852.25ZM854 335.5V333.75H855.75V335.5H854ZM850.5 337.25V335.5H852.25V337.25H850.5ZM855.75 337.25V335.5H857.5V337.25H855.75ZM850.5 339V337.25H852.25V339H850.5ZM855.75 339V337.25H857.5V339H855.75ZM850.5 340.75V339H852.25V340.75H850.5ZM852.25 340.75V339H854V340.75H852.25ZM854 340.75V339H855.75V340.75H854ZM855.75 340.75V339H857.5V340.75H855.75ZM848.75 342.5V340.75H850.5V342.5H848.75ZM857.5 342.5V340.75H859.25V342.5H857.5ZM848.75 344.25V342.5H850.5V344.25H848.75ZM857.5 344.25V342.5H859.25V344.25H857.5ZM848.75 346V344.25H850.5V346H848.75ZM857.5 346V344.25H859.25V346H857.5ZM864.5 333.75V332H866.25V333.75H864.5ZM862.75 335.5V333.75H864.5V335.5H862.75ZM864.5 335.5V333.75H866.25V335.5H864.5ZM861 337.25V335.5H862.75V337.25H861ZM864.5 337.25V335.5H866.25V337.25H864.5ZM864.5 339V337.25H866.25V339H864.5ZM864.5 340.75V339H866.25V340.75H864.5ZM864.5 342.5V340.75H866.25V342.5H864.5ZM864.5 344.25V342.5H866.25V344.25H864.5ZM861 346V344.25H862.75V346H861ZM862.75 346V344.25H864.5V346H862.75ZM864.5 346V344.25H866.25V346H864.5ZM866.25 346V344.25H868V346H866.25ZM868 346V344.25H869.75V346H868ZM876.75 333.75V332H878.5V333.75H876.75ZM878.5 333.75V332H880.25V333.75H878.5ZM876.75 335.5V333.75H878.5V335.5H876.75ZM878.5 335.5V333.75H880.25V335.5H878.5ZM875 337.25V335.5H876.75V337.25H875ZM880.25 337.25V335.5H882V337.25H880.25ZM875 339V337.25H876.75V339H875ZM880.25 339V337.25H882V339H880.25ZM875 340.75V339H876.75V340.75H875ZM876.75 340.75V339H878.5V340.75H876.75ZM878.5 340.75V339H880.25V340.75H878.5ZM880.25 340.75V339H882V340.75H880.25ZM873.25 342.5V340.75H875V342.5H873.25ZM882 342.5V340.75H883.75V342.5H882ZM873.25 344.25V342.5H875V344.25H873.25ZM882 344.25V342.5H883.75V344.25H882ZM873.25 346V344.25H875V346H873.25ZM882 346V344.25H883.75V346H882Z" fill="#DEDEDE"/>
<path d="M785 320H745V360H785V320Z" fill="#821A1A"/>
</svg>
