<svg width="300" height="159" viewBox="0 0 300 159" fill="none" xmlns="http://www.w3.org/2000/svg">
<path d="M297.5 58.682H2.5V100.046H297.5V58.682Z" fill="#F0D50C" stroke="#121212" stroke-width="5"/>
<path d="M297.5 2.5H2.5V43.8636H297.5V2.5Z" fill="#91AADF" stroke="#121212" stroke-width="5"/>
<path d="M297.5 114.864H2.5V156.228H297.5V114.864Z" fill="#DEDEDE" stroke="#121212" stroke-width="5"/>
<path d="M53 127V124H56V127H53ZM56 127V124H59V127H56ZM59 127V124H62V127H59ZM62 127V124H65V127H62ZM50 130V127H53V130H50ZM53 133V130H56V133H53ZM56 133V130H59V133H56ZM59 136V133H62V136H59ZM62 139V136H65V139H62ZM50 142V139H53V142H50ZM53 142V139H56V142H53ZM56 142V139H59V142H56ZM59 142V139H62V142H59ZM71 127V124H74V127H71ZM74 127V124H77V127H74ZM77 127V124H80V127H77ZM80 127V124H83V127H80ZM71 130V127H74V130H71ZM83 130V127H86V130H83ZM71 133V130H74V133H71ZM83 133V130H86V133H83ZM71 136V133H74V136H71ZM83 136V133H86V136H83ZM71 139V136H74V139H71ZM83 139V136H86V139H83ZM71 142V139H74V142H71ZM74 142V139H77V142H74ZM77 142V139H80V142H77ZM80 142V139H83V142H80ZM71 145V142H74V145H71ZM71 148V145H74V148H71ZM71 151V148H74V151H71ZM95 127V124H98V127H95ZM98 127V124H101V127H98ZM101 127V124H104V127H101ZM104 130V127H107V130H104ZM95 133V130H98V133H95ZM98 133V130H101V133H98ZM101 133V130H104V133H101ZM104 133V130H107V133H104ZM92 136V133H95V136H92ZM104 136V133H107V136H104ZM92 139V136H95V139H92ZM104 139V136H107V139H104ZM95 142V139H98V142H95ZM98 142V139H101V142H98ZM101 142V139H104V142H101ZM104 142V139H107V142H104ZM116 127V124H119V127H116ZM119 127V124H122V127H119ZM122 127V124H125V127H122ZM113 130V127H116V130H113ZM125 130V127H128V130H125ZM113 133V130H116V133H113ZM113 136V133H116V136H113ZM113 139V136H116V139H113ZM125 139V136H128V139H125ZM116 142V139H119V142H116ZM119 142V139H122V142H119ZM122 142V139H125V142H122ZM137 127V124H140V127H137ZM140 127V124H143V127H140ZM143 127V124H146V127H143ZM134 130V127H137V130H134ZM146 130V127H149V130H146ZM134 133V130H137V133H134ZM137 133V130H140V133H137ZM140 133V130H143V133H140ZM143 133V130H146V133H143ZM146 133V130H149V133H146ZM134 136V133H137V136H134ZM134 139V136H137V139H134ZM146 139V136H149V139H146ZM137 142V139H140V142H137ZM140 142V139H143V142H140ZM143 142V139H146V142H143ZM158 127V124H161V127H158ZM161 127V124H164V127H161ZM164 127V124H167V127H164ZM155 130V127H158V130H155ZM167 130V127H170V130H167ZM155 133V130H158V133H155ZM155 136V133H158V136H155ZM155 139V136H158V139H155ZM167 139V136H170V139H167ZM158 142V139H161V142H158ZM161 142V139H164V142H161ZM164 142V139H167V142H164ZM179 127V124H182V127H179ZM182 127V124H185V127H182ZM185 127V124H188V127H185ZM188 130V127H191V130H188ZM179 133V130H182V133H179ZM182 133V130H185V133H182ZM185 133V130H188V133H185ZM188 133V130H191V133H188ZM176 136V133H179V136H176ZM188 136V133H191V136H188ZM176 139V136H179V139H176ZM188 139V136H191V139H188ZM179 142V139H182V142H179ZM182 142V139H185V142H182ZM185 142V139H188V142H185ZM188 142V139H191V142H188ZM194 127V124H197V127H194ZM197 127V124H200V127H197ZM200 127V124H203V127H200ZM206 127V124H209V127H206ZM209 127V124H212V127H209ZM194 130V127H197V130H194ZM203 130V127H206V130H203ZM212 130V127H215V130H212ZM194 133V130H197V133H194ZM203 133V130H206V133H203ZM212 133V130H215V133H212ZM194 136V133H197V136H194ZM203 136V133H206V136H203ZM212 136V133H215V136H212ZM194 139V136H197V139H194ZM203 139V136H206V139H203ZM212 139V136H215V139H212ZM194 142V139H197V142H194ZM203 142V139H206V142H203ZM212 142V139H215V142H212ZM218 127V124H221V127H218ZM221 127V124H224V127H221ZM224 127V124H227V127H224ZM227 127V124H230V127H227ZM218 130V127H221V130H218ZM230 130V127H233V130H230ZM218 133V130H221V133H218ZM230 133V130H233V133H230ZM218 136V133H221V136H218ZM230 136V133H233V136H230ZM218 139V136H221V139H218ZM230 139V136H233V139H230ZM218 142V139H221V142H218ZM221 142V139H224V142H221ZM224 142V139H227V142H224ZM227 142V139H230V142H227ZM218 145V142H221V145H218ZM218 148V145H221V148H218ZM218 151V148H221V151H218Z" fill="black"/>
</svg>
